<svg version="1.1" id="Layer_1" xmlns="https://www.w3.org/2000/svg" xmlns:xlink="https://www.w3.org/1999/xlink" x="0px" y="0px"
	 width="504.878px" height="504.716px" viewBox="0 0 504.878 504.716" enable-background="new 0 0 504.878 504.716"
	 xml:space="preserve">
<g>
	<path stroke="#001511" stroke-miterlimit="10" d="M0.5,335.458c0-55.326,0-110.653,0-165.979c0.278-1.573,0.757-3.14,0.804-4.72
		c0.58-19.475,1.456-38.917,6.229-57.937c10.769-42.908,35.651-74.127,76.575-91.823c22.191-9.596,45.771-12.384,69.668-13.361
		c5.241-0.214,10.468-0.749,15.702-1.137c55.327,0,110.652,0,165.979,0c1.572,0.278,3.136,0.678,4.721,0.815
		c16.063,1.398,32.383,1.407,48.151,4.361c57.581,10.786,94.525,44.485,109.157,101.692c6.331,24.752,6.392,50.166,6.621,75.41
		c0.449,49.458,0.343,98.93-0.366,148.384c-0.275,19.241-1.106,38.765-4.615,57.615c-10.679,57.371-44.531,94.126-101.525,108.706
		c-24.59,6.29-49.835,6.441-74.91,6.612c-52.451,0.356-104.911-0.165-157.365-0.547c-19.822-0.145-39.607-1.332-58.94-6.239
		c-42.099-10.687-72.996-35.062-90.791-75.087c-10.042-22.585-12.964-46.648-13.958-71.06C1.423,345.921,0.888,340.692,0.5,335.458z
		 M459.381,252.485c-0.259-0.003-0.517-0.005-0.775-0.008c0-20.986,0.409-41.983-0.118-62.958
		c-0.499-19.786-1.233-39.623-3.249-59.296c-1.946-18.991-8.656-36.456-21.566-51.172c-17.757-20.238-41.076-28.757-66.855-30.333
		c-29.725-1.817-59.552-2.25-89.343-2.616c-29.313-0.36-58.645-0.239-87.954,0.352c-19.785,0.398-39.623,1.227-59.296,3.243
		c-18.991,1.947-36.456,8.657-51.171,21.568c-20.238,17.755-28.757,41.076-30.333,66.854c-1.816,29.725-2.25,59.552-2.616,89.343
		c-0.36,29.313-0.239,58.644,0.352,87.954c0.399,19.785,1.227,39.623,3.243,59.297c1.946,18.99,8.656,36.456,21.567,51.171
		c17.756,20.237,41.076,28.757,66.854,30.332c29.726,1.817,59.552,2.251,89.343,2.617c29.314,0.359,58.65,0.368,87.953-0.389
		c21.762-0.562,43.74-0.978,65.171-4.335c36.624-5.737,61.44-26.943,71.291-63.302c3.233-11.936,4.886-24.558,5.349-36.938
		C458.49,320.097,458.733,286.283,459.381,252.485z"/>
	<path fill-rule="evenodd" clip-rule="evenodd" fill="#FFFFFF" stroke="#001511" stroke-miterlimit="10" d="M459.381,252.485
		c-0.647,33.798-0.891,67.611-2.154,101.386c-0.463,12.38-2.115,25.002-5.349,36.938c-9.851,36.358-34.667,57.564-71.291,63.302
		c-21.431,3.357-43.409,3.772-65.171,4.335c-29.303,0.757-58.639,0.748-87.953,0.389c-29.791-0.366-59.618-0.8-89.343-2.617
		c-25.779-1.575-49.099-10.095-66.854-30.332c-12.911-14.715-19.621-32.181-21.567-51.171c-2.016-19.674-2.844-39.512-3.243-59.297
		c-0.591-29.31-0.712-58.641-0.352-87.954c0.366-29.791,0.799-59.619,2.616-89.343c1.576-25.779,10.095-49.099,30.333-66.854
		c14.715-12.911,32.181-19.621,51.171-21.568c19.673-2.016,39.511-2.844,59.296-3.243c29.309-0.591,58.641-0.712,87.954-0.352
		c29.791,0.365,59.618,0.799,89.343,2.616c25.779,1.575,49.099,10.095,66.855,30.333c12.91,14.716,19.62,32.181,21.566,51.172
		c2.016,19.673,2.75,39.511,3.249,59.296c0.527,20.974,0.118,41.971,0.118,62.958C458.864,252.48,459.122,252.482,459.381,252.485z
		 M381.958,252.402c-0.016-71.461-57.856-129.355-129.307-129.424c-71.719-0.069-129.66,57.817-129.673,129.554
		c-0.014,71.43,57.879,129.377,129.305,129.426C324.021,382.007,381.974,324.107,381.958,252.402z M417.283,118.221
		c0.068-16.922-13.413-30.536-30.271-30.567c-16.822-0.032-30.561,13.652-30.521,30.4c0.039,16.548,13.58,30.211,30.095,30.367
		C403.415,148.578,417.215,135.001,417.283,118.221z"/>
	<path fill-rule="evenodd" clip-rule="evenodd" stroke="#001511" stroke-miterlimit="10" d="M381.958,252.402
		c0.016,71.705-57.937,129.604-129.675,129.556c-71.425-0.049-129.318-57.996-129.305-129.426
		c0.013-71.737,57.954-129.623,129.673-129.554C324.102,123.047,381.942,180.941,381.958,252.402z M168.646,252.392
		c-0.002,45.864,37.523,83.854,82.872,83.898c46.722,0.046,84.737-37.175,84.772-82.998c0.036-46.878-37.269-84.64-83.623-84.646
		C206.299,168.64,168.648,206.167,168.646,252.392z"/>
	<path fill-rule="evenodd" clip-rule="evenodd" stroke="#001511" stroke-miterlimit="10" d="M417.283,118.221
		c-0.068,16.78-13.868,30.357-30.697,30.2c-16.515-0.155-30.056-13.819-30.095-30.367c-0.039-16.749,13.699-30.433,30.521-30.4
		C403.87,87.685,417.352,101.299,417.283,118.221z"/>
	<path fill-rule="evenodd" clip-rule="evenodd" fill="#FFFFFF" stroke="#001511" stroke-miterlimit="10" d="M168.646,252.392
		c0.002-46.224,37.653-83.752,84.021-83.745c46.354,0.006,83.659,37.767,83.623,84.646c-0.035,45.823-38.051,83.044-84.772,82.998
		C206.169,336.246,168.644,298.256,168.646,252.392z"/>
</g>
</svg>
