<svg xmlns="https://www.w3.org/2000/svg" width="299" height="62" viewBox="0 0 299.3 62.2"><style>.a{fill:#0C0D0D;}</style><path d="M77.4 42.1c0 0.1 0 0.3 0 0.5s-0.1 0.3-0.2 0.4c-0.1 0.1-0.2 0.2-0.2 0.3s0 0.3 0 0.5 0 0.3 0 0.4c0 0.1-0.1 0.2-0.2 0.2 -0.1 0-0.1 0-0.1-0.1 0 0-0.1-0.1-0.2-0.1 -0.1 0-0.1 0-0.2 0.1s-0.1 0.1-0.1 0.2 0 0.1 0.1 0.2c0 0 0.1 0.1 0.1 0.2 0 0.1-0.1 0.1-0.3 0.2 -0.2 0.1-0.4 0.2-0.6 0.2 -0.2 0.1-0.5 0.1-0.7 0.2 -0.2 0-0.4 0.1-0.5 0.1 -0.5 0-0.9-0.1-1.4-0.3 -0.5-0.2-0.9-0.3-1.3-0.5 -0.5-0.2-0.9-0.5-1.1-0.9 -0.2-0.4-0.4-0.9-0.5-1.5 -0.1-0.5-0.2-1.1-0.3-1.7s-0.2-1.1-0.3-1.5c-0.1-0.2-0.1-0.4-0.1-0.5s0-0.2 0-0.3c0-0.1 0.1-0.2 0.1-0.2 0-0.1 0.1-0.1 0.1-0.2 0 0 0-0.1 0-0.2 0-0.2 0-0.3-0.1-0.5s-0.1-0.4-0.1-0.7c0-0.1 0-0.3 0-0.4 0-0.1 0-0.3 0-0.4 0-0.5 0-0.9-0.1-1.3 -0.1-0.3-0.2-0.6-0.3-0.9s-0.3-0.5-0.5-0.8c-0.2-0.3-0.4-0.6-0.6-1 -0.1 0-0.2 0-0.3 0 -0.1 0-0.2 0-0.4 0 -0.3 0-0.5 0-0.7 0 -0.2 0-0.5 0-0.7 0 -0.3 0-0.5 0-0.8 0.1 -0.3 0.1-0.5 0.1-0.8 0.1 -0.2 0-0.4 0-0.5-0.1s-0.4-0.1-0.5-0.1c-0.2 0-0.4 0-0.6 0.1 -0.2 0.1-0.4 0.2-0.6 0.4s-0.3 0.3-0.4 0.6c-0.1 0.2-0.2 0.4-0.2 0.7v0.7c0 1.2-0.1 2.4-0.3 3.5 0 0.2-0.1 0.4-0.1 0.5 0 0.2 0 0.4 0 0.5 0 0.6 0.1 1 0.3 1.4s0.5 0.6 0.8 0.8c0.3 0.2 0.6 0.4 1 0.5 0.4 0.1 0.7 0.3 1 0.4 0.3 0.1 0.6 0.3 0.8 0.5 0.2 0.2 0.3 0.5 0.3 0.8 0 0.1 0 0.3-0.1 0.4 0 0.1-0.1 0.2-0.2 0.3 -0.2 0.3-0.3 0.5-0.5 0.6 -0.1 0.1-0.3 0.3-0.5 0.3s-0.4 0.1-0.6 0.2 -0.4 0.1-0.7 0.2c-0.2 0.1-0.4 0.1-0.7 0.1 -0.2 0-0.5 0-0.7 0 -0.4 0-0.7 0-1-0.1 -0.3-0.1-0.7-0.1-1-0.1 -0.3 0-0.5 0-0.8 0.1 -0.3 0-0.5 0.1-0.8 0.2 -0.3 0.1-0.5 0.1-0.8 0.2 -0.3 0-0.5 0.1-0.8 0.1 -0.2 0-0.4 0-0.6-0.1s-0.4-0.1-0.6-0.2c-0.2-0.1-0.3-0.2-0.4-0.4 -0.1-0.2-0.2-0.4-0.2-0.6 0-0.2 0-0.4 0.1-0.5s0.2-0.3 0.4-0.4c0.1-0.1 0.3-0.2 0.5-0.3s0.3-0.1 0.5-0.1c0.1 0 0.3 0 0.3 0s0.2 0 0.2 0c0.1 0 0.1-0.1 0.2-0.1 0.1-0.1 0.2-0.1 0.3-0.2 0.1-0.1 0.1-0.1 0.2-0.2 0.1 0 0.1-0.1 0.2-0.1 0.1 0 0.1 0 0.2 0 0.1 0 0.1 0 0.2 0 0.1 0 0.2 0 0.3-0.1 0.3-0.2 0.5-0.4 0.6-0.6s0.2-0.5 0.2-0.9c0-0.3 0.1-0.6 0.1-1 0-0.3 0-0.6 0.1-0.9 0.1-0.3 0.1-0.6 0.1-0.8 0-0.5-0.1-0.9-0.2-1.4s-0.2-0.9-0.2-1.4c0-0.6 0-1.1 0.1-1.7s0.1-1.1 0.1-1.7c0-0.1 0-0.3 0-0.4s0-0.3 0-0.4c0-1 0.1-2 0.2-2.9 0.1-1 0.2-1.9 0.2-2.9 0-0.3 0-0.5 0-0.8 0-0.3 0-0.5-0.1-0.8 0-0.2-0.1-0.5-0.1-0.8s-0.1-0.7-0.1-1c0-0.3-0.1-0.7-0.2-1s-0.2-0.6-0.3-0.9 -0.3-0.5-0.5-0.7c-0.2-0.2-0.5-0.3-0.7-0.3 -0.1 0-0.1 0-0.2 0 -0.1 0-0.1 0-0.2 0 -0.1 0-0.3 0-0.3-0.1s-0.2-0.2-0.2-0.3c0-0.1-0.1-0.3-0.1-0.4 0-0.1 0-0.3 0-0.4 0-0.5 0.1-0.8 0.3-1s0.5-0.4 0.8-0.5 0.7-0.1 1-0.1c0.4 0 0.7 0 1 0 0.3 0 0.7-0.1 1-0.2 0.3-0.1 0.6-0.1 1-0.1 0.5 0 1 0.1 1.5 0.2s1 0.2 1.5 0.2c0.4 0 0.8 0 1.2-0.1s0.8-0.2 1.1-0.3c0.2-0.1 0.4-0.1 0.5-0.1 0.5 0 1 0.1 1.5 0.2 0.5 0.1 1 0.2 1.4 0.2 0.3 0 0.7 0.1 1 0.2s0.7 0.2 1 0.4c0.3 0.2 0.6 0.4 0.8 0.7 0.2 0.3 0.4 0.6 0.4 1 0 0.2 0.1 0.5 0.3 0.7s0.3 0.4 0.4 0.6c0.2 0.2 0.3 0.3 0.4 0.5 0.1 0.1 0.2 0.3 0.2 0.4s0 0.2-0.1 0.2c-0.1 0-0.1 0.1-0.1 0.2 0 0.1 0 0.1 0.1 0.2 0.1 0.1 0.2 0.2 0.3 0.3 0.1 0.1 0.2 0.2 0.3 0.4s0.1 0.3 0.1 0.4c0 0.2-0.1 0.4-0.2 0.5s-0.2 0.3-0.2 0.5l0 0.1 0.3-0.1 0 0c0.1 0.2 0.1 0.4 0.1 0.7 0 0.2 0 0.5 0 0.6 0 0.3 0 0.5 0 0.9s0 0.6-0.1 0.9c0 0.3-0.1 0.6-0.2 0.8s-0.2 0.5-0.4 0.6c-0.1 0.1-0.2 0.2-0.3 0.2s-0.2 0.1-0.3 0.2c-0.1 0.1-0.2 0.1-0.3 0.2s-0.2 0.2-0.2 0.4c-0.1 0.2-0.2 0.5-0.3 0.7 -0.2 0.2-0.3 0.4-0.5 0.6 -0.2 0.2-0.3 0.4-0.4 0.6s-0.2 0.4-0.2 0.7c0 0.4 0.1 0.8 0.3 1.1s0.3 0.7 0.5 1c0.1 0.4 0.2 0.7 0.3 1.1 0.1 0.4 0.1 0.8 0.1 1.1s0.1 0.8 0.1 1.1c0 0.4 0.1 0.8 0.1 1.1 0 0.2 0.1 0.4 0.2 0.8 0.1 0.4 0.2 0.8 0.3 1.1 0.1 0.4 0.3 0.7 0.5 1s0.4 0.4 0.5 0.4c0.2 0 0.3-0.1 0.4-0.3s0.2-0.4 0.3-0.7 0.2-0.5 0.3-0.7 0.3-0.4 0.5-0.5c0.4 0 0.7 0.1 1 0.2s0.5 0.3 0.6 0.5c0.1 0.2 0.2 0.5 0.3 0.8C77.3 41.4 77.4 41.7 77.4 42.1zM71.7 23.3c0-0.2 0-0.4-0.1-0.7 -0.1-0.3-0.2-0.5-0.3-0.8s-0.2-0.5-0.4-0.7 -0.3-0.4-0.4-0.6c-0.3 0-0.4 0-0.5-0.1s-0.1-0.1-0.2-0.2c0-0.1-0.1-0.1-0.1-0.2s-0.1-0.2-0.3-0.2c-0.4-0.2-0.8-0.4-1.2-0.5s-0.8-0.2-1.3-0.2c-0.1 0-0.3 0-0.4 0.1s-0.2 0.1-0.3 0.1c-0.3 0-0.6 0-0.8-0.1s-0.6-0.1-0.8-0.1c-0.4 0-0.8 0.1-1.3 0.2 -0.3 0.1-0.6 0.2-0.9 0.2s-0.5 0.2-0.8 0.3c-0.2 0.1-0.4 0.3-0.6 0.6s-0.2 0.6-0.2 1c0 0.4 0 0.8 0.1 1.3s0.1 0.8 0.1 1.3c0 0.2 0 0.4-0.1 0.6 -0.1 0.2-0.1 0.4-0.2 0.6 -0.1 0.2-0.1 0.4-0.2 0.6s-0.1 0.4-0.1 0.6c0 0.2 0 0.5 0.1 0.7s0.1 0.5 0.2 0.7 0.3 0.4 0.4 0.5c0.2 0.1 0.4 0.2 0.7 0.2 0.3 0 0.5-0.1 0.8-0.2 0.2-0.1 0.5-0.2 0.8-0.2 0.1 0 0.3 0 0.4 0.1 0.1 0.1 0.3 0.2 0.4 0.2s0.3 0.2 0.4 0.2c0.1 0.1 0.3 0.1 0.5 0.1 0.1 0 0.2 0 0.4-0.1s0.2-0.1 0.3-0.1c0.5-0.2 1-0.4 1.5-0.6 0.5-0.2 1.1-0.3 1.6-0.3 0.1 0 0.3-0.1 0.5-0.3 0.2-0.2 0.4-0.4 0.6-0.7s0.4-0.6 0.6-0.9c0.2-0.3 0.4-0.6 0.5-1 0.2-0.3 0.3-0.6 0.4-0.9C71.7 23.6 71.7 23.4 71.7 23.3z"/><path d="M97.3 36.4c0 0.2 0 0.4-0.1 0.5 -0.1 0.2-0.1 0.3-0.2 0.4 -0.1 0.1-0.1 0.2-0.2 0.3 -0.1 0.1-0.1 0.1-0.1 0.1 0 0.1 0 0.3 0.1 0.4s0.1 0.3 0.1 0.5c0 0.1 0 0.1-0.1 0.2s-0.1 0-0.2 0c-0.1 0-0.2 0-0.3 0 0 0.3 0 0.5 0.1 0.8 0 0.2 0 0.5 0 0.8 0 0.4 0 0.7-0.1 0.8 -0.1 0.1-0.1 0.2-0.2 0.2 -0.1 0-0.1 0.1-0.2 0.1 -0.1 0-0.1 0.2-0.1 0.4 0 0.1-0.1 0.3-0.2 0.5 -0.2 0.2-0.3 0.4-0.6 0.6s-0.4 0.4-0.7 0.5S94 43.6 93.9 43.6c0 0-0.1 0-0.1 0 0 0.1 0 0.2 0 0.3s0 0.2 0 0.3c0 0.2-0.1 0.3-0.1 0.4 -0.1 0.1-0.2 0.1-0.3 0.2 -0.2 0.1-0.4 0.2-0.6 0.4 -0.2 0.2-0.4 0.4-0.6 0.6s-0.4 0.4-0.6 0.5c-0.2 0.1-0.4 0.2-0.7 0.2 -0.2 0-0.4-0.1-0.6-0.2 -0.2-0.1-0.4-0.2-0.6-0.2 -0.2 0-0.4 0-0.5 0.1 -0.1 0.1-0.3 0.1-0.4 0.2 -0.1 0.1-0.2 0.1-0.4 0.2 -0.1 0.1-0.3 0.1-0.4 0.1 -0.3 0-0.7-0.1-1-0.3 -0.3-0.2-0.6-0.3-0.9-0.4 -0.2-0.1-0.4-0.1-0.6-0.2 -0.2 0-0.4-0.1-0.6-0.1s-0.4-0.1-0.5-0.2c-0.2-0.1-0.3-0.2-0.4-0.4 -0.3-0.4-0.6-0.6-0.9-0.9s-0.7-0.5-1.1-0.7c-0.4-0.2-0.7-0.4-1.1-0.6 -0.3-0.2-0.6-0.5-0.9-0.9 -0.2-0.3-0.4-0.6-0.6-0.9 -0.2-0.3-0.5-0.7-0.7-1.1 -0.2-0.4-0.4-0.7-0.5-1.1 -0.1-0.4-0.2-0.8-0.2-1.1 0-0.3 0-0.5 0.1-0.8 0.1-0.3 0.1-0.5 0.2-0.8 0.1-0.3 0.1-0.5 0.2-0.8 0.1-0.3 0.1-0.5 0.1-0.8v-0.2c0-0.1 0-0.1-0.1-0.2s-0.1-0.1-0.1-0.2c0-0.1-0.1-0.1-0.1-0.2 0 0-0.1-0.1-0.1-0.1 0 0 0 0 0 0 0-0.1 0-0.3 0.1-0.6 0.1-0.3 0.1-0.5 0.2-0.8 0.1-0.3 0.2-0.5 0.2-0.7s0.1-0.4 0.2-0.4c0.1-0.1 0.1-0.1 0.2-0.2s0.1-0.2 0.1-0.3 0-0.2 0-0.4 0-0.2 0-0.4c0-0.2 0-0.3 0.1-0.3 0 0 0.1-0.1 0.2-0.1 0.1 0 0.1 0 0.2 0s0.1-0.1 0.2-0.2c0.1-0.2 0.2-0.5 0.3-0.7 0.1-0.2 0.2-0.4 0.3-0.6s0.3-0.3 0.4-0.5c0.2-0.1 0.4-0.3 0.6-0.4 0.2-0.1 0.4-0.3 0.6-0.5 0.2-0.2 0.4-0.4 0.6-0.5 0.2-0.2 0.4-0.3 0.6-0.5s0.4-0.2 0.7-0.2c0.3 0 0.7-0.1 1-0.2 0.3-0.1 0.6-0.2 1-0.3 0.5-0.1 1-0.2 1.5-0.2 0.5-0.1 1-0.1 1.6-0.1 0.3 0 0.6 0.1 1.1 0.2s0.8 0.2 1.3 0.4 0.8 0.3 1.2 0.6 0.7 0.4 0.9 0.6v0.1c0 0.2 0 0.4-0.1 0.6s-0.1 0.4-0.1 0.6c0 0 0 0.1 0 0.1s0 0 0 0c0.2 0 0.4 0 0.6-0.1s0.4-0.1 0.6-0.1c0 0.2 0.1 0.4 0.3 0.5 0.2 0.1 0.3 0.2 0.5 0.2 0.2 0.1 0.3 0.2 0.4 0.4 0.1 0.2 0.3 0.5 0.4 0.7s0.2 0.5 0.3 0.8c0.1 0.3 0.2 0.5 0.3 0.6 0.1 0.2 0.2 0.4 0.3 0.6 0.1 0.2 0.2 0.5 0.2 0.7s0.1 0.5 0.1 0.7c0 0.2 0 0.5 0 0.7 0 0.3 0 0.5-0.1 0.7 -0.1 0.2-0.2 0.4-0.3 0.5 -0.1 0.1-0.2 0.3-0.3 0.4 -0.1 0.1-0.1 0.3-0.1 0.4 0 0.1 0 0.2 0.1 0.3 0 0.1 0.1 0.2 0.2 0.2 0 0 0.1 0 0.2 0s0.1-0.1 0.1-0.1v0c0-0.1 0-0.2-0.1-0.3s-0.1-0.2-0.1-0.3c0 0 0-0.1 0-0.1 0-0.1 0.1-0.1 0.1-0.1 0.1 0 0.2 0.1 0.2 0.2 0.1 0.1 0.1 0.2 0.2 0.3 0.1 0.1 0.1 0.2 0.2 0.3 0 0.1 0.1 0.1 0.1 0.1l0 0c0 0.1 0 0.1 0 0.2C97.3 36.3 97.3 36.3 97.3 36.4zM95.4 36.6c0-0.2-0.1-0.4-0.2-0.4 -0.2 0-0.3-0.1-0.5-0.1 -0.2 0-0.4 0-0.6-0.1 -0.2 0-0.3-0.1-0.4-0.3v-0.2c0-0.3 0-0.7-0.1-1.1 -0.1-0.4-0.2-0.8-0.3-1.2 -0.1-0.4-0.2-0.8-0.3-1.2 -0.1-0.4-0.2-0.8-0.3-1.1s-0.2-0.7-0.3-1c-0.1 0-0.2 0-0.2 0 -0.2 0-0.4 0-0.6-0.1 -0.2-0.1-0.3-0.2-0.5-0.3 -0.2-0.1-0.4-0.2-0.7-0.3s-0.7-0.1-1.1-0.1c-0.5 0-1 0-1.5-0.1 -0.5-0.1-1-0.1-1.5-0.1 -0.7 0-1.4 0.2-2 0.5s-1.2 0.8-1.6 1.4c-0.5 0.6-0.8 1.2-1.1 1.9s-0.4 1.4-0.4 2.2c0 0.3 0 0.7 0 1.1 0 0.4 0 0.8 0.1 1.2 0.1 0.4 0.1 0.8 0.2 1.1 0.1 0.3 0.3 0.6 0.5 0.8v0.6c0.1 0.1 0.1 0.1 0.2 0.1 0.1 0 0.2 0 0.2 0 0.1 0 0.2 0 0.2 0 0.1 0 0.1 0.1 0.2 0.2 0.2 0.5 0.4 0.9 0.6 1.2 0.3 0.3 0.5 0.5 0.8 0.7 0.3 0.2 0.6 0.4 0.9 0.6 0.3 0.2 0.6 0.5 0.8 0.8 0.1 0 0.2 0 0.3 0 0.1 0 0.2 0 0.3 0 0.4 0 0.8 0 1.2 0.1 0.4 0.1 0.8 0.1 1.2 0.1 0.4 0 0.8-0.1 1.1-0.3 0.3-0.2 0.6-0.5 0.9-0.9 0.2-0.2 0.3-0.4 0.4-0.6 0.1-0.2 0.3-0.3 0.4-0.5 0.1-0.1 0.3-0.3 0.4-0.4 0.2-0.1 0.3-0.3 0.6-0.4 0.1-0.1 0.2-0.1 0.3-0.2 0.1-0.1 0.2-0.2 0.3-0.3 0.1-0.1 0.2-0.2 0.3-0.3 0.1-0.1 0.1-0.2 0.1-0.3 0-0.1 0-0.2 0-0.4s0-0.2 0-0.4c0-0.1 0-0.3 0.1-0.5s0.1-0.4 0.2-0.6 0.2-0.3 0.3-0.4c0.1-0.1 0.3-0.2 0.4-0.2 0.1 0 0.3 0 0.4 0.1 0.1 0.1 0.3 0.2 0.4 0.2C95.4 36.7 95.4 36.6 95.4 36.6z"/><path d="M118.9 41.8c0 0.2 0 0.5-0.1 0.7 -0.1 0.2-0.1 0.4-0.2 0.6 0 0.2-0.1 0.3-0.1 0.5 0 0.1 0 0.2-0.1 0.3 0 0.1-0.1 0.2-0.2 0.2 -0.1 0.1-0.2 0.2-0.4 0.3 -0.4 0.2-0.8 0.4-1.2 0.7 -0.4 0.2-0.8 0.3-1.3 0.3 -0.4 0-0.7-0.1-1-0.3 -0.3-0.2-0.6-0.4-0.9-0.6 -0.3-0.2-0.5-0.4-0.7-0.6s-0.4-0.3-0.6-0.3c-0.2 0-0.3 0-0.4 0.1 -0.1 0.1-0.2 0.2-0.4 0.3s-0.3 0.2-0.4 0.3c-0.1 0.1-0.3 0.1-0.5 0.1 -0.2 0-0.4 0-0.5 0.1 -0.2 0.1-0.4 0.1-0.6 0.2 -0.2 0.1-0.4 0.2-0.6 0.3 -0.2 0.1-0.4 0.2-0.5 0.2 -0.6 0.2-1.1 0.3-1.7 0.3s-1.1 0-1.7 0c-0.2 0-0.4 0-0.7 0 -0.3 0-0.6 0-1-0.1 -0.3-0.1-0.6-0.2-0.8-0.3 -0.2-0.1-0.4-0.3-0.4-0.6 0-0.1 0-0.1 0-0.1 -0.1 0.1-0.2 0.2-0.3 0.3s-0.2 0.1-0.4 0.1c-0.2 0-0.4-0.1-0.7-0.5s-0.6-0.6-0.8-1 -0.5-0.8-0.7-1.2c-0.2-0.4-0.3-0.7-0.3-0.9 0-0.1 0-0.3 0.1-0.4 0.1-0.1 0.1-0.3 0.1-0.4 0-0.2 0-0.4-0.1-0.5 0-0.2-0.1-0.4-0.1-0.5 0-0.2 0-0.5 0.1-0.8 0.1-0.3 0.2-0.6 0.3-0.8 0.1-0.3 0.3-0.6 0.4-0.8 0.1-0.3 0.3-0.5 0.4-0.7 0.1-0.3 0.3-0.5 0.5-0.7s0.5-0.3 0.7-0.4 0.5-0.2 0.8-0.4c0.3-0.1 0.5-0.3 0.7-0.5 0.2 0.2 0.4 0.3 0.7 0.3 0.3 0 0.6-0.1 0.9-0.2 0.3-0.1 0.6-0.2 0.9-0.2 0.3 0 0.5 0 0.7 0.1s0.5 0.1 0.7 0.1c0.3 0 0.5 0 0.6-0.1 0.1-0.1 0.3-0.2 0.5-0.4s0.5-0.3 0.8-0.4c0.3-0.1 0.6-0.2 1-0.2 0.3-0.1 0.7-0.1 1-0.2 0.3-0.1 0.6-0.2 0.9-0.3s0.5-0.3 0.6-0.5c0.2-0.2 0.2-0.5 0.2-0.9 0-0.4-0.1-0.9-0.3-1.4s-0.5-0.9-0.9-1.3c-0.4-0.4-0.8-0.7-1.2-1s-0.9-0.4-1.3-0.4c0 0-0.1 0-0.1 0s-0.1 0-0.1 0c-0.3 0.1-0.6 0.1-1 0.1s-0.7 0.1-1.1 0.2c-0.3 0.1-0.6 0.3-0.8 0.5 -0.2 0.2-0.3 0.6-0.3 1.1 0 0.3 0 0.5 0.1 0.8s0.1 0.5 0.1 0.8c0 0.4-0.1 0.8-0.3 1s-0.4 0.5-0.7 0.7 -0.6 0.3-0.9 0.3c-0.3 0.1-0.7 0.1-1 0.1 -0.4 0-0.7-0.1-1-0.2 -0.3-0.1-0.5-0.4-0.7-0.8 -0.1-0.3-0.3-0.6-0.4-0.9 -0.2-0.3-0.2-0.7-0.2-1 0-0.4 0.1-0.7 0.2-1 0.1-0.3 0.3-0.6 0.4-0.9 0.2-0.3 0.3-0.6 0.4-0.9 0.1-0.3 0.2-0.6 0.3-1 0.1-0.1 0.2-0.1 0.4-0.2s0.3-0.1 0.5-0.2 0.4-0.1 0.5-0.2 0.3-0.1 0.4-0.1c0.3-0.1 0.6-0.2 0.9-0.3s0.6-0.2 0.9-0.4 0.6-0.2 0.9-0.3c0.3-0.1 0.6-0.1 0.9-0.1l0.6 0c0.5 0 1.1 0.1 1.7 0.2 0.6 0.1 1.1 0.3 1.7 0.5s1.1 0.5 1.5 0.8 0.9 0.7 1.3 1.1c0.3 0.3 0.5 0.7 0.7 1.2 0.2 0.4 0.3 0.9 0.4 1.4s0.2 1 0.2 1.5c0 0.5 0.1 1 0.1 1.4 0 0.6 0 1.1 0 1.7 0 0.6 0 1.1 0 1.7 0 0.5 0 1.1 0.1 1.6 0.1 0.5 0.1 1.1 0.2 1.6 0.1 0.5 0.1 1.1 0.2 1.6 0.1 0.5 0.1 1.1 0.1 1.6 0 0.3 0.1 0.5 0.1 0.6 0.1 0.1 0.1 0.1 0.2 0.1 0.3 0 0.5-0.1 0.7-0.3 0.2-0.2 0.3-0.4 0.5-0.6 0.1-0.2 0.3-0.4 0.5-0.6s0.4-0.3 0.6-0.3c0.1 0 0.2 0 0.4 0s0.2 0 0.3 0.1c0.1 0 0.2 0.1 0.2 0.2C118.9 41.5 118.9 41.6 118.9 41.8zM112.7 36.7c0-0.1 0-0.2 0-0.4 0-0.2 0-0.4 0-0.6 0-0.2-0.1-0.4-0.1-0.6s-0.1-0.2-0.3-0.2c0 0-0.1 0-0.1 0 0 0-0.1 0-0.1 0 -0.5 0.3-0.9 0.5-1.2 0.7 -0.3 0.2-0.7 0.3-1 0.5 -0.3 0.1-0.7 0.2-1.1 0.2s-0.8 0.1-1.4 0.1c-0.1 0-0.3 0-0.6 0.1s-0.7 0.1-1.1 0.2c-0.4 0.1-0.8 0.2-1.1 0.3 -0.4 0.1-0.6 0.1-0.7 0.2 -0.2 0.1-0.3 0.1-0.3 0.2 -0.1 0.1-0.1 0.1-0.2 0.2 0 0.1-0.1 0.2-0.1 0.3 0 0.1-0.1 0.2-0.2 0.3 -0.1 0.1-0.3 0.2-0.4 0.3 -0.1 0.1-0.3 0.2-0.4 0.3 -0.2 0.2-0.4 0.5-0.5 0.8 -0.2 0.3-0.2 0.7-0.2 1 0 0.4 0.1 0.7 0.3 1s0.4 0.5 0.7 0.7c0.3 0.2 0.6 0.4 1 0.5 0.4 0.2 0.7 0.3 1.1 0.3s0.7 0.1 1.1 0.2 0.6 0.1 0.9 0.1c0.3 0 0.7 0 1.1-0.1 0.4 0 0.8-0.1 1.2-0.2 0.4-0.1 0.8-0.2 1.2-0.4s0.7-0.4 0.9-0.7c0.1-0.1 0.2-0.2 0.2-0.3 0-0.1 0.1-0.2 0.1-0.3 0-0.1 0.1-0.2 0.2-0.3 0.1-0.1 0.1-0.2 0.3-0.3 0.3-0.3 0.5-0.5 0.7-0.9s0.3-0.6 0.3-1 0.1-0.7 0.1-1.1S112.7 37.1 112.7 36.7z"/><path d="M142 44.4c0 0.1 0 0.2 0 0.4 0 0.2-0.1 0.4-0.1 0.6 -0.1 0.2-0.1 0.4-0.2 0.5s-0.2 0.2-0.3 0.2c-0.1 0-0.3 0-0.4-0.1 -0.1-0.1-0.3-0.1-0.4-0.1 -0.4 0-0.9 0-1.3 0.1 -0.4 0.1-0.9 0.1-1.3 0.1 -0.2 0-0.4 0-0.6-0.1 -0.2-0.1-0.4-0.1-0.6-0.2s-0.4-0.1-0.6-0.2 -0.4-0.1-0.6-0.1c-0.3 0-0.5-0.2-0.7-0.4s-0.2-0.5-0.2-0.8c0-0.4 0.1-0.7 0.3-0.9 0.2-0.3 0.4-0.5 0.6-0.8 0.2-0.3 0.4-0.6 0.6-1s0.3-0.9 0.3-1.6c0-1.3-0.1-2.7-0.2-4 -0.1-1.3-0.2-2.6-0.2-4v-0.6c0-0.3 0-0.6 0-0.9s-0.1-0.6-0.2-0.8c-0.1-0.2-0.2-0.4-0.4-0.6 -0.2-0.1-0.5-0.2-0.8-0.2 -0.3 0.2-0.6 0.4-0.8 0.6s-0.5 0.5-0.7 0.8c-0.1 0.1-0.2 0.4-0.3 0.7s-0.2 0.7-0.3 1.1 -0.2 0.8-0.3 1.3 -0.2 0.9-0.2 1.3 -0.1 0.8-0.1 1.2 -0.1 0.6-0.1 0.8c0 0.5 0 1 0.1 1.6 0.1 0.5 0.1 1.1 0.1 1.6 0 0.3 0 0.5-0.1 0.8 0 0.3-0.1 0.5-0.1 0.8 0 0.1 0 0.2 0 0.3 0 0.1 0.1 0.2 0.1 0.3 0.1 0.1 0.3 0.2 0.5 0.3 0.2 0.1 0.4 0.3 0.5 0.4 0.2 0.2 0.3 0.3 0.4 0.5s0.2 0.4 0.2 0.6c0 0.4-0.1 0.7-0.4 1 -0.3 0.2-0.6 0.4-0.9 0.4 -0.1 0-0.2 0-0.2 0s-0.2 0-0.2 0c-0.1 0-0.2 0-0.4 0.1 -0.1 0-0.2 0.1-0.4 0.2 -0.1 0.1-0.3 0.1-0.4 0.2 -0.1 0-0.3 0.1-0.4 0.1 -0.4 0-0.8-0.1-1.1-0.2s-0.7-0.2-1.1-0.2c-0.1 0-0.2-0.1-0.3-0.2 -0.1-0.1-0.2-0.2-0.2-0.4 -0.1-0.1-0.1-0.3-0.1-0.4s0-0.3 0-0.4c0-0.2 0-0.4 0.1-0.6 0.1-0.1 0.2-0.2 0.3-0.3s0.3-0.2 0.5-0.3c0.2-0.1 0.3-0.2 0.5-0.4s0.3-0.4 0.3-0.7c0.1-0.3 0.1-0.7 0.1-1.2 0-0.2 0-0.4-0.1-0.6 0-0.2-0.1-0.4-0.2-0.6s-0.1-0.4-0.1-0.6 -0.1-0.4-0.1-0.6c0-0.4 0-0.7 0.1-1.1 0.1-0.4 0.1-0.7 0.1-1.1 0-0.3 0-0.5-0.1-0.7s-0.1-0.5-0.1-0.7c0-0.2 0-0.3 0.1-0.5 0.1-0.1 0.1-0.3 0.1-0.5 0-0.1 0-0.2 0-0.3 0-0.1-0.1-0.3-0.1-0.5s-0.1-0.4-0.1-0.6c0-0.2 0-0.4 0-0.6 0-0.2 0-0.5 0.1-0.7s0.1-0.5 0.1-0.7c0-0.1 0-0.3-0.1-0.4 -0.1-0.1-0.2-0.2-0.3-0.3s-0.2-0.2-0.4-0.2c-0.1-0.1-0.3-0.1-0.4-0.1 -0.2 0-0.4 0-0.6 0.1 -0.2 0.1-0.4 0.2-0.6 0.3s-0.3 0.3-0.5 0.5c-0.2 0.2-0.3 0.3-0.5 0.5 0 0.1-0.1 0.3-0.1 0.4 0 0.1-0.1 0.3-0.1 0.4 0 0.1-0.1 0.2-0.2 0.2 -0.1 0.1-0.2 0.1-0.3 0.2 -0.1 0.1-0.2 0.1-0.3 0.2 -0.1 0.1-0.1 0.2-0.1 0.3 0 0.1 0 0.2 0.1 0.3s0.1 0.1 0.2 0.1c0.1 0.3 0.2 0.6 0.2 0.8 0 0.2 0 0.5-0.1 0.7s-0.1 0.4-0.1 0.6c-0.1 0.2-0.1 0.4-0.1 0.7 0 0.2-0.1 0.4-0.1 0.7l0 2.1c0 0.2 0 0.3 0.1 0.4 0 0.1 0.1 0.1 0.2 0.1 0.1 0 0.1 0.1 0.2 0.2 0.1 0.1 0.1 0.2 0.1 0.4 0 0.3 0.1 0.6 0.1 0.8 0 0.3 0 0.6 0 0.8 0 0.3 0 0.6-0.1 0.9 0 0.3-0.1 0.6-0.1 0.9 0 0.3 0 0.5 0.1 0.7 0.1 0.1 0.2 0.2 0.3 0.3 0.1 0.1 0.3 0.1 0.4 0.1 0.1 0 0.3 0.1 0.4 0.1s0.2 0.2 0.3 0.3c0.1 0.1 0.1 0.4 0.1 0.7 0 0.3-0.1 0.5-0.2 0.7 -0.1 0.2-0.3 0.3-0.6 0.4 -0.8 0.2-1.6 0.4-2.5 0.6 -0.9 0.1-1.7 0.2-2.5 0.2 -0.3 0-0.5 0-0.6 0 -0.2 0-0.3-0.1-0.4-0.2 -0.1-0.1-0.2-0.2-0.2-0.4s-0.1-0.5-0.1-0.8c0-0.3 0.1-0.6 0.3-0.9 0.2-0.3 0.5-0.5 0.8-0.7s0.5-0.5 0.8-0.7c0.2-0.2 0.3-0.5 0.3-0.8 0-0.1 0-0.2 0-0.3 0-0.1 0-0.2 0-0.3 0-0.1 0-0.2 0-0.4s0.1-0.3 0.2-0.4c0-0.3 0-0.6-0.1-0.9 -0.1-0.3-0.1-0.6-0.2-0.9 -0.1-0.3-0.1-0.6-0.2-0.9 -0.1-0.3-0.1-0.6-0.1-0.9 0-0.6 0.1-1.3 0.2-1.9 0.1-0.6 0.2-1.2 0.2-1.9 0-0.4 0-0.7 0-1s0-0.7-0.1-1c0-0.4-0.1-0.7-0.1-1 0-0.3-0.1-0.5-0.2-0.6 -0.1-0.2-0.3-0.3-0.5-0.5 -0.2-0.1-0.5-0.3-0.8-0.5 -0.2-0.1-0.4-0.3-0.5-0.4 -0.2-0.2-0.2-0.4-0.2-0.7 0-0.3 0.1-0.5 0.2-0.6s0.3-0.2 0.4-0.3c0.2-0.1 0.3-0.1 0.5-0.2 0.2-0.1 0.3-0.2 0.3-0.3 0.1-0.1 0.1-0.2 0.1-0.2s0.1 0 0.3 0c0.3 0 0.7 0.1 1 0.2 0.3 0.1 0.6 0.2 0.9 0.4s0.6 0.3 0.8 0.4 0.5 0.2 0.8 0.2c0.3 0 0.5-0.1 0.8-0.3s0.6-0.4 1-0.6 0.7-0.4 1.2-0.6c0.4-0.2 0.9-0.3 1.5-0.3 0.2 0 0.4 0.1 0.7 0.2 0.2 0.1 0.4 0.2 0.7 0.4s0.4 0.3 0.6 0.5c0.2 0.2 0.3 0.4 0.5 0.6 0.3-0.3 0.7-0.6 1.1-0.8s0.8-0.4 1.3-0.6 0.9-0.3 1.3-0.3 0.9-0.1 1.3-0.1c0.3 0 0.6 0.1 0.8 0.3s0.5 0.4 0.7 0.7c0.2 0.3 0.4 0.7 0.5 1s0.3 0.8 0.4 1.1 0.2 0.8 0.3 1.1 0.2 0.7 0.2 0.9c0 0.1 0 0.1 0.1 0.2 0 0.1 0 0.1 0 0.2 0 0.2 0 0.4-0.1 0.6 -0.1 0.2-0.1 0.4-0.2 0.5s-0.1 0.3-0.2 0.5c-0.1 0.2-0.1 0.4-0.1 0.6s0 0.4 0.1 0.6c0.1 0.2 0.1 0.4 0.1 0.6 0 0.2 0 0.4-0.1 0.6 -0.1 0.2-0.1 0.4-0.1 0.6 0 0.3 0 0.5 0.1 0.8s0.1 0.5 0.1 0.8c0 0.2 0 0.4-0.1 0.6 -0.1 0.2-0.1 0.4-0.2 0.6s-0.1 0.4-0.2 0.6c-0.1 0.2-0.1 0.4-0.1 0.6 0 0.1 0 0.1 0 0.2 0 0.1 0 0.1 0.1 0.2l0.7 2c0.1 0.3 0.3 0.6 0.6 0.8s0.5 0.5 0.8 0.8c0.3 0.2 0.5 0.5 0.7 0.8C141.9 43.8 142 44.1 142 44.4z"/><path d="M163.5 44.6c0 0.2 0 0.5-0.1 0.7 -0.1 0.2-0.2 0.4-0.3 0.5 -0.1 0.2-0.3 0.3-0.5 0.4 -0.2 0.1-0.4 0.1-0.6 0.1 -0.1 0-0.1 0-0.2 0 0 0-0.1-0.1-0.1-0.1 -0.2-0.2-0.4-0.3-0.6-0.4 -0.3 0-0.5-0.1-0.8-0.1 -0.3 0-0.5-0.1-0.8-0.2 -0.2-0.1-0.4-0.4-0.6-0.7 -0.1-0.2-0.2-0.4-0.3-0.5 -0.1-0.1-0.3-0.1-0.5-0.1 -0.6 0-1.1 0.1-1.6 0.3 -0.5 0.2-1 0.4-1.5 0.6 -0.5 0.2-1 0.5-1.5 0.6s-1 0.3-1.6 0.3c-0.3 0-0.6 0-0.9-0.1 -0.3-0.1-0.6-0.2-0.9-0.3 -0.1 0.1-0.1 0.1-0.2 0.1s-0.2 0-0.3 0c-0.1 0-0.2 0-0.3 0 -0.1 0-0.2 0-0.2 0 0 0-0.1 0-0.2 0.1 -0.1 0-0.2 0.1-0.2 0.1l0.1 0.2c-0.1 0.1-0.2 0.2-0.5 0.4 -0.3 0.1-0.5 0.2-0.9 0.3 -0.3 0.1-0.6 0.2-0.9 0.2 -0.3 0.1-0.5 0.1-0.7 0.1 -0.4 0-0.7-0.1-1-0.2 -0.3-0.1-0.5-0.4-0.8-0.7 -0.1-0.1-0.2-0.3-0.3-0.4s-0.3-0.3-0.4-0.4c-0.1-0.1-0.2-0.3-0.3-0.5 -0.1-0.2-0.1-0.3-0.1-0.5 0-0.2 0.1-0.4 0.3-0.5s0.4-0.2 0.7-0.3c0.3-0.1 0.6-0.1 0.8-0.2 0.3 0 0.5-0.1 0.6-0.1 0.3 0 0.6 0 0.9 0.1 0.3 0.1 0.6 0.1 0.9 0.1 0.3 0 0.5 0 0.8-0.1s0.5-0.1 0.8-0.1c0.2 0 0.5 0 0.7 0.1 0.2 0 0.5 0.1 0.7 0.1 0.3 0 0.6-0.1 0.9-0.2 0.3-0.1 0.6-0.3 0.8-0.5 0.1-0.7 0.2-1.3 0.2-2s0.1-1.3 0.1-2c0-0.7-0.1-1.3-0.1-2 -0.1-0.7-0.2-1.3-0.2-2 0-0.1 0-0.1 0-0.1 0 0 0.1 0 0.1 0 0 0 0.1 0 0.1 0 0 0 0-0.1 0-0.2 0-0.3 0-0.6-0.1-0.8 -0.1-0.3-0.1-0.6-0.1-0.8 0-0.4 0-0.7 0.1-1s0.1-0.7 0.1-1c0-0.2 0-0.5-0.1-0.7s-0.2-0.5-0.4-0.7 -0.4-0.3-0.6-0.5c-0.2-0.1-0.4-0.2-0.7-0.2 -0.3 0-0.5 0-0.8 0.1 -0.3 0.1-0.5 0.1-0.8 0.2 -0.3 0.1-0.6 0.2-0.8 0.2 -0.3 0.1-0.6 0.1-0.9 0.1 -0.4 0-0.7 0-1.1-0.1s-0.7-0.1-1.1-0.2c-0.2 0-0.4-0.1-0.6-0.1 -0.2 0-0.4-0.1-0.6-0.1 -0.2-0.1-0.4-0.2-0.5-0.3 -0.1-0.1-0.2-0.3-0.2-0.6 0-0.5 0.1-0.8 0.2-1.1 0.2-0.3 0.4-0.4 0.6-0.6 0.2-0.1 0.5-0.2 0.8-0.2 0.3 0 0.6-0.1 0.8-0.1 0.5 0 1-0.1 1.4-0.1s0.9-0.1 1.4-0.1c0.6 0 1.2 0 1.7 0.1 0.6 0.1 1.2 0.1 1.7 0.1 0.4 0 0.8 0.1 1.2 0.2s0.7 0.3 1 0.6c0.3 0.3 0.5 0.6 0.7 1.1 0.2 0.4 0.2 0.9 0.2 1.5 0 0.4-0.1 0.7-0.2 1.1s-0.3 0.7-0.6 0.9c0.1 0.2 0.2 0.3 0.3 0.4s0.2 0.1 0.2 0.2 0.1 0.1 0.2 0.2 0.1 0.2 0.1 0.4c0 0.1 0 0.2 0 0.4s0.1 0.2 0.3 0.2c0 0.7 0 1.5 0 2.2 0 0.7 0 1.4 0 2.2 0 0.6 0 1.2 0 1.8s0.1 1.2 0.1 1.8c0.1 0.4 0.2 0.7 0.3 0.9 0.2 0.2 0.4 0.3 0.8 0.3 0.6 0 1.1-0.1 1.7-0.2 0.6-0.1 1.1-0.2 1.7-0.2 0.3 0 0.6 0.1 0.9 0.3 0.3 0.2 0.6 0.4 0.8 0.6 0.3 0.2 0.5 0.4 0.8 0.6s0.5 0.3 0.7 0.3c0.1 0 0.2 0 0.2 0.1 0.1 0.1 0.1 0.2 0.1 0.3 0 0.1 0.1 0.2 0.1 0.3C163.5 44.4 163.5 44.5 163.5 44.6zM154.4 19.6c0 0.4-0.1 0.8-0.2 1.2s-0.3 0.8-0.5 1.1c-0.2 0.3-0.5 0.6-0.8 0.9s-0.7 0.3-1.1 0.3c-0.3 0-0.6 0-1-0.1 -0.4-0.1-0.8-0.2-1.1-0.4s-0.7-0.4-0.9-0.7 -0.4-0.6-0.4-1c0-0.3 0-0.7 0.1-1 0.1-0.3 0.1-0.7 0.1-1.1 0.1-0.1 0.3-0.2 0.4-0.4s0.2-0.4 0.4-0.5 0.2-0.4 0.4-0.5c0.1-0.1 0.2-0.2 0.4-0.2l-0.1 0c0.2-0.1 0.4-0.1 0.6-0.2 0.2-0.1 0.4-0.1 0.6-0.1 0.3 0 0.6 0.1 1 0.2 0.4 0.1 0.7 0.3 1.1 0.6 0.3 0.2 0.6 0.5 0.9 0.8C154.3 19 154.4 19.3 154.4 19.6z"/><path d="M185.6 44.8c0 0.2 0 0.3-0.1 0.5s-0.2 0.2-0.3 0.3c-0.1 0.1-0.3 0.1-0.4 0.1 -0.2 0-0.3 0-0.4 0 -0.2 0-0.4 0-0.6 0s-0.4-0.1-0.6-0.1c-0.3 0.1-0.5 0.2-0.9 0.3 -0.3 0.1-0.7 0.2-0.9 0.2 -0.1 0-0.1 0-0.2 0 -0.1 0-0.1 0-0.2 0 -0.2 0-0.4 0-0.6 0.1 -0.2 0.1-0.4 0.1-0.6 0.1 -0.4 0-0.7-0.1-1-0.2 -0.3-0.1-0.7-0.2-1-0.2 -0.6-0.1-1-0.3-1.4-0.7 -0.3-0.4-0.5-1-0.5-1.6 0.4-0.3 0.8-0.4 1.2-0.5 0.4-0.1 0.9-0.1 1.3-0.1 0.3 0 0.5 0 0.7 0 0.2 0 0.5 0 0.7 0.1 0-1-0.1-2.1-0.2-3.1s-0.2-2.1-0.2-3.1c0-0.4 0-0.7 0-1.1s0.1-0.7 0.1-1.1c0.1-0.4 0.1-0.7 0.2-1.1 0.1-0.3 0.2-0.7 0.2-1.1 0-0.2 0-0.4-0.1-0.6 -0.1-0.2-0.1-0.4-0.2-0.6 -0.1-0.2-0.1-0.3-0.2-0.6 0-0.2-0.1-0.4-0.1-0.6 0-0.2-0.1-0.4-0.2-0.6s-0.2-0.4-0.4-0.6c-0.2-0.2-0.4-0.3-0.7-0.4 -0.3-0.1-0.7-0.1-1.2-0.1 -0.1 0-0.4 0-0.7 0.1 -0.3 0-0.6 0.1-0.9 0.2 -0.3 0.1-0.6 0.2-0.9 0.3s-0.5 0.2-0.6 0.3c-0.1 0.1-0.1 0.2-0.2 0.3s-0.2 0.3-0.3 0.4c-0.1 0.1-0.2 0.2-0.3 0.3s-0.2 0.2-0.3 0.2c-0.2 0-0.3 0.1-0.4 0.1 -0.1 0-0.2 0.1-0.2 0.1s-0.1 0.1-0.1 0.2 -0.1 0.3-0.2 0.4c0 0.1-0.1 0.2-0.1 0.3s-0.1 0.2-0.2 0.2c-0.1 0-0.1 0-0.1-0.1 0-0.1-0.1-0.1-0.1-0.1 0 0-0.1 0-0.1 0.1 0 0-0.1 0.1-0.1 0.1v0.6c-0.1 0.1-0.2 0.2-0.2 0.2s-0.1 0-0.2 0c0 0-0.1 0-0.1 0.1s0 0.2 0 0.4c0 0.2 0 0.3-0.1 0.4s-0.1 0.2-0.2 0.4 -0.1 0.3-0.2 0.4c-0.1 0.1-0.1 0.3-0.1 0.4 0 0.3 0 0.5 0.1 0.8 0.1 0.3 0.1 0.5 0.1 0.8 0 0.2 0 0.3-0.1 0.5s-0.1 0.2-0.2 0.3c-0.1 0.1-0.1 0.2-0.2 0.3s-0.1 0.2-0.1 0.3c0 0.2 0 0.4 0.1 0.5 0.1 0.2 0.1 0.3 0.2 0.5 0.1 0.2 0.1 0.3 0.2 0.5 0.1 0.2 0.1 0.4 0.1 0.6 0 0.2 0 0.5-0.1 0.7 0 0.2-0.1 0.5-0.1 0.7 0 0.3 0 0.5 0.1 0.7 0.1 0.2 0.2 0.3 0.3 0.4 0.1 0.1 0.3 0.1 0.5 0.2s0.4 0.1 0.5 0.2c0.2 0.1 0.4 0.2 0.6 0.3 0.2 0.1 0.4 0.3 0.5 0.6l0.1 0c0.2 0 0.4 0.1 0.5 0.3 0.1 0.2 0.2 0.4 0.2 0.6 0 0.2 0 0.4-0.1 0.5 -0.1 0.1-0.1 0.3-0.1 0.6 0 0.2-0.2 0.3-0.5 0.4s-0.7 0.2-1.1 0.3c-0.4 0.1-0.8 0.1-1.2 0.1 -0.4 0-0.6 0-0.8 0 -0.2 0-0.4 0-0.7 0 -0.3 0-0.7 0-1 0 -0.4 0-0.8-0.1-1.2-0.1 -0.4 0-0.8-0.1-1.1-0.2 -0.4-0.1-0.6-0.2-0.9-0.3 -0.2-0.1-0.4-0.3-0.5-0.4s-0.1-0.3-0.2-0.5c-0.1-0.2-0.1-0.4-0.1-0.6 0-0.2 0-0.4 0.1-0.6 0.1-0.2 0.2-0.3 0.3-0.5 0.2-0.2 0.4-0.3 0.6-0.3 0.2 0 0.4-0.1 0.7-0.1 0.2 0 0.4 0 0.6-0.1 0.2 0 0.4-0.1 0.5-0.3 0.2-0.2 0.3-0.5 0.4-0.8 0.1-0.4 0.1-0.9 0.1-1.6 0-0.2 0-0.4 0-0.5 0-0.2-0.1-0.4-0.1-0.5 0-0.2-0.1-0.3-0.1-0.5 0-0.1 0-0.2 0-0.3 0-0.1 0-0.2 0.1-0.3 0-0.1 0.1-0.2 0.2-0.3 0.1-0.1 0.1-0.2 0.2-0.3s0.1-0.3 0.1-0.4c0-0.2 0-0.5-0.1-0.7 -0.1-0.2-0.1-0.4-0.1-0.7 0-0.2 0-0.4 0.1-0.6s0.1-0.4 0.1-0.6c0-0.1 0-0.3-0.1-0.4s-0.1-0.3-0.1-0.5c0-0.1 0-0.3 0.1-0.5 0.1-0.2 0.1-0.3 0.1-0.5 0-0.4 0-0.7-0.1-1.1 -0.1-0.4-0.1-0.7-0.2-1.1 -0.1-0.4-0.2-0.7-0.4-1s-0.4-0.4-0.7-0.5 -0.5-0.2-0.8-0.3 -0.6-0.2-0.8-0.3c-0.2-0.1-0.4-0.3-0.6-0.6 -0.2-0.3-0.2-0.7-0.2-1.2 0-0.4 0.1-0.6 0.3-0.8 0.2-0.2 0.4-0.3 0.7-0.4s0.6-0.1 0.9-0.2 0.6 0 0.8 0c0.4 0 0.7 0.1 1.1 0.2s0.7 0.2 1.1 0.2c0.2 0 0.3 0.1 0.5 0.2s0.3 0.2 0.4 0.4c0.1 0.1 0.2 0.3 0.3 0.5s0.1 0.4 0.1 0.5c0 0.1 0 0.2 0.1 0.4 0.1 0.2 0.1 0.4 0.2 0.6 0.1 0.2 0.1 0.4 0.2 0.6s0.2 0.3 0.3 0.3c0.1-0.1 0.1-0.1 0.2-0.2s0.1-0.2 0.1-0.3c0-0.1 0.1-0.2 0.3-0.3 0.2-0.1 0.3-0.3 0.5-0.4 0.2-0.1 0.4-0.3 0.6-0.4 0.2-0.1 0.3-0.2 0.4-0.3 0.1-0.1 0.1-0.2 0.2-0.3s0.1-0.2 0.1-0.3 0.1-0.2 0.2-0.2c0.1-0.1 0.2-0.1 0.3-0.1h0.1c0.1 0 0.3-0.1 0.4-0.2 0.1-0.1 0.3-0.3 0.5-0.4s0.5-0.3 0.8-0.4 0.8-0.2 1.3-0.2c0.5 0 0.9 0 1.4 0 0.5 0 0.9 0.1 1.3 0.2 0.4 0.1 0.8 0.3 1.2 0.6 0.4 0.3 0.7 0.6 1 1.1 0.2 0.4 0.4 0.6 0.5 0.8s0.3 0.3 0.3 0.5 0.1 0.4 0.2 0.6 0 0.6 0 1c0 0.2 0 0.4 0.1 0.5s0.1 0.3 0.2 0.5 0.2 0.4 0.2 0.5 0.1 0.4 0.1 0.7c0 0.5 0 1-0.1 1.4 0 0.5-0.1 0.9-0.1 1.4 0 0.3-0.1 0.7-0.2 1 -0.1 0.3-0.2 0.7-0.2 1 0 0.2 0 0.3 0.1 0.5s0.1 0.3 0.1 0.5c0 0.2 0 0.5-0.1 0.7 -0.1 0.2-0.1 0.5-0.1 0.7 0 0.2 0 0.4 0.1 0.6 0.1 0.2 0.1 0.3 0.1 0.6 0 0.1 0 0.2-0.1 0.3 0 0.1-0.1 0.1-0.1 0.2s-0.1 0.1-0.1 0.2c0 0.1-0.1 0.2-0.1 0.3 0 0.2 0 0.4 0.1 0.6 0.1 0.2 0.2 0.4 0.4 0.6 0.2 0.2 0.3 0.3 0.5 0.4 0.2 0.1 0.4 0.2 0.6 0.2 0.2 0 0.3 0 0.4-0.1 0.1-0.1 0.2-0.1 0.4-0.1 0.2 0 0.3 0.1 0.5 0.2 0.1 0.2 0.3 0.3 0.4 0.6 0.1 0.2 0.2 0.4 0.2 0.7S185.6 44.7 185.6 44.8zM169.3 36.6c0-0.1 0-0.2 0-0.3s-0.1-0.3-0.1-0.4c-0.1-0.1-0.1-0.2-0.2-0.3 -0.1-0.1-0.2-0.1-0.3-0.1 -0.1 0-0.3 0-0.4 0.1 -0.1 0.1-0.2 0.1-0.4 0.1h-0.1c0 0.2-0.1 0.3-0.1 0.4l0 0.1 0-0.1c0 0.2 0.1 0.3 0.2 0.3s0.2 0.2 0.4 0.2c0.1 0.1 0.3 0.1 0.4 0.2s0.3 0.1 0.4 0.2C169.3 37 169.3 36.9 169.3 36.6zM181.5 37.1c0-0.1 0-0.3-0.1-0.4 -0.1-0.1-0.2-0.2-0.3-0.2 -0.1 0-0.2 0.1-0.3 0.2 0 0.1-0.1 0.3-0.1 0.4 0 0.2 0 0.3 0.1 0.4 0.1 0.1 0.2 0.2 0.3 0.2 0.1 0 0.2 0 0.3-0.1 0.1-0.1 0.1-0.2 0.1-0.5V37.1zM181.8 41.1c0-0.1 0-0.2-0.1-0.2 -0.1-0.1-0.1-0.1-0.2-0.2 0 0.1-0.1 0.2-0.1 0.2s-0.1 0.2-0.2 0.3c-0.1 0.1-0.1 0.2-0.2 0.3s-0.1 0.2-0.1 0.3c0 0.1 0 0.2 0.1 0.2 0.1 0.1 0.1 0.1 0.2 0.1 0-0.1 0.1-0.2 0.1-0.2 0.1-0.1 0.1-0.2 0.2-0.3 0.1-0.1 0.1-0.2 0.2-0.3C181.8 41.3 181.8 41.2 181.8 41.1z"/><path d="M206.5 48.8c0 0.4-0.1 0.9-0.4 1.4 -0.3 0.5-0.6 0.9-1 1.3 -0.4 0.4-0.7 0.7-1.1 1 -0.4 0.3-0.6 0.4-0.8 0.4 -0.3 0-0.6 0.1-1 0.2 -0.3 0.1-0.6 0.2-0.9 0.4 -0.3 0.2-0.7 0.3-1.2 0.5s-1.1 0.3-1.7 0.4c-0.6 0.1-1.2 0.2-1.8 0.3 -0.6 0.1-1 0.1-1.3 0.1 -0.4 0-0.8 0-1.2 0s-0.8-0.1-1.2-0.1c-0.4-0.1-0.8-0.1-1.2-0.2 -0.4-0.1-0.8-0.2-1.1-0.4 -0.2-0.1-0.3-0.2-0.4-0.2s-0.2-0.2-0.3-0.2 -0.2-0.1-0.3-0.2c-0.1 0-0.3-0.1-0.5-0.1 -0.3 0-0.5-0.1-0.6-0.2 -0.2-0.1-0.3-0.2-0.4-0.4s-0.2-0.3-0.3-0.5c-0.1-0.2-0.2-0.4-0.3-0.6 -0.3-0.4-0.5-0.8-0.6-1.1 -0.1-0.4-0.2-0.8-0.2-1.3 0-0.7 0.1-1.4 0.4-2 0.3-0.6 0.6-1.2 1-1.8 0-0.4 0-0.8-0.1-1.2 -0.1-0.4-0.2-0.8-0.3-1.2s-0.2-0.8-0.3-1.2c-0.1-0.4-0.1-0.8-0.1-1.2 0-0.3 0-0.5 0.1-0.7 0.1-0.2 0.1-0.3 0.2-0.4 0.1-0.1 0.1-0.2 0.2-0.3 0.1-0.1 0.1-0.2 0.1-0.4 0 0 0.1-0.2 0.3-0.3s0.4-0.4 0.6-0.7c0.2-0.2 0.4-0.5 0.6-0.8 0.2-0.3 0.3-0.5 0.3-0.7 0-0.2-0.1-0.3-0.2-0.5 -0.1-0.2-0.3-0.3-0.4-0.5 -0.2-0.2-0.3-0.3-0.4-0.5 -0.1-0.2-0.2-0.4-0.2-0.6 0-0.3 0-0.6 0.1-0.9 0-0.3 0.1-0.6 0.2-0.9s0.1-0.6 0.2-0.9c0-0.3 0.1-0.6 0.1-0.9 0-0.1 0-0.1 0-0.2 0 0 0-0.1 0-0.2 0-0.1 0-0.3 0.1-0.4s0.1-0.2 0.2-0.3 0.2-0.2 0.2-0.3 0.1-0.2 0.1-0.2c0-0.1 0-0.2-0.1-0.3 -0.1-0.1-0.1-0.2-0.1-0.4v-0.1V28.1c0.2-0.1 0.4-0.3 0.5-0.5s0.3-0.4 0.5-0.6c0.3-0.2 0.5-0.5 0.9-0.7 0.3-0.2 0.7-0.4 1-0.6 0.1 0 0.2 0.1 0.2 0.2 0 0.1 0.1 0.1 0.2 0.1 0.1 0 0.2 0 0.4-0.1 0.2-0.1 0.4-0.2 0.6-0.3s0.5-0.2 0.7-0.3c0.2-0.1 0.5-0.1 0.7-0.1 0.2 0 0.4 0 0.6 0.1s0.4 0.1 0.6 0.1c0.4 0.1 0.8 0.1 1.1 0.1s0.6 0.1 0.9 0.1 0.5 0.2 0.8 0.4 0.5 0.5 0.7 0.9c0.1-0.1 0.3-0.2 0.4-0.3 0.2-0.1 0.3-0.2 0.5-0.3s0.3-0.2 0.4-0.3c0.1-0.1 0.2-0.3 0.3-0.5 0.1 0.1 0.3 0.1 0.4 0.1 0.1 0 0.2 0 0.3-0.1 0.1-0.1 0.2-0.2 0.4-0.3s0.3-0.2 0.5-0.3 0.4-0.1 0.7-0.1c0.4 0 0.8 0 1.3 0.1s0.8 0.2 1.3 0.2c0 0.3 0.1 0.6 0.2 0.9s0.2 0.6 0.3 0.9c0.1 0.3 0.2 0.6 0.3 0.9 0.1 0.3 0.1 0.6 0.1 0.9 0 0.2-0.1 0.4-0.3 0.7 -0.2 0.3-0.4 0.5-0.7 0.7s-0.6 0.4-0.9 0.6 -0.6 0.2-0.9 0.2c0 0-0.1 0-0.1 0s-0.1-0.1-0.1-0.1c0-0.1 0-0.3 0.1-0.3s0.1-0.2 0.1-0.3c-0.2-0.1-0.3-0.1-0.3-0.2s-0.1 0-0.1 0c-0.2 0-0.4 0.1-0.5 0.2s-0.2 0.3-0.3 0.5c-0.1 0.2-0.1 0.4-0.1 0.7s0 0.5 0 0.7c0 0.3 0 0.5 0 0.8 0 0.2 0 0.4 0 0.6 0 0.3 0 0.6-0.1 0.9 0 0.3-0.2 0.5-0.4 0.8 -0.2 0.2-0.4 0.5-0.5 0.8 -0.1 0.3-0.3 0.6-0.4 0.9 -0.1 0.3-0.3 0.6-0.4 0.9 -0.2 0.3-0.4 0.6-0.7 0.8 -0.2 0.2-0.3 0.3-0.4 0.4 -0.1 0.1-0.2 0.1-0.2 0.2 0 0-0.1 0.1-0.1 0.1 0 0 0 0 0 0 -0.3 0-0.7 0.1-1 0.2 -0.3 0.1-0.6 0.2-0.9 0.3 -0.3 0.1-0.6 0.2-0.9 0.3 -0.3 0.1-0.6 0.2-1 0.2 -0.5 0-1-0.1-1.5-0.2 -0.5-0.1-1-0.2-1.5-0.2 -0.3 0-0.5 0.1-0.8 0.2s-0.6 0.3-0.9 0.5c-0.3 0.2-0.5 0.4-0.7 0.7 -0.2 0.3-0.3 0.6-0.3 0.9 0 0.2 0 0.4 0.1 0.6 0.1 0.2 0.2 0.4 0.3 0.6 0.1 0.2 0.3 0.3 0.4 0.4 0.2 0.1 0.3 0.2 0.5 0.2 0.2 0 0.4-0.1 0.6-0.2s0.4-0.2 0.6-0.2c0.2 0 0.3 0 0.4 0.1 0.1 0.1 0.2 0.1 0.3 0.2 0-0.1 0-0.2 0.1-0.2s0.1-0.1 0.2-0.1c0.1 0 0.2 0 0.2 0.1s0.2 0.2 0.3 0.2c0.1-0.1 0.2-0.2 0.3-0.2 0.1 0 0.2-0.1 0.3-0.1 0.2 0 0.3 0 0.4 0.1s0.3 0.1 0.4 0.2c0.1 0.1 0.2 0.1 0.4 0.2s0.2 0.1 0.3 0.1c0.1 0 0.2 0 0.3-0.1 0.1-0.1 0.2-0.1 0.2-0.2s0.2-0.2 0.3-0.2c0.1-0.1 0.3-0.1 0.4-0.1 0.1 0 0.3 0 0.4 0 0.1 0 0.2 0 0.4 0 0.2 0 0.4-0.1 0.5-0.2 0.2-0.1 0.3-0.2 0.5-0.2 0.1 0 0.2 0 0.3 0.1 0.1 0.1 0.2 0.1 0.3 0.2 0.1 0.1 0.3 0.1 0.5 0.2 0.2 0.1 0.4 0.1 0.7 0.1 0.2 0 0.4 0 0.6 0.1 0.2 0.1 0.4 0.2 0.6 0.2 0.2 0.1 0.4 0.2 0.6 0.3 0.2 0.1 0.4 0.2 0.6 0.2 0.2 0.1 0.4 0.1 0.5 0.2 0.1 0.1 0.2 0.1 0.3 0.2 0.1 0.1 0.1 0.2 0.2 0.3 0.1 0.1 0.2 0.2 0.4 0.4 0.2 0.2 0.4 0.3 0.5 0.4 0.2 0.1 0.3 0.2 0.5 0.3s0.3 0.2 0.4 0.4c0.1 0.2 0.2 0.4 0.3 0.7 0.1 0.3 0.1 0.6 0.2 0.9C206.5 48.2 206.5 48.5 206.5 48.8zM203.5 48.2c0-0.4-0.1-0.7-0.3-0.9 -0.2-0.2-0.4-0.4-0.7-0.5s-0.6-0.2-0.9-0.3c-0.3-0.1-0.6-0.1-0.9-0.2l0 0c-0.7-0.2-1.4-0.4-2.1-0.6 -0.7-0.2-1.4-0.3-2.1-0.3 0 0-0.1 0-0.1 0 -0.1 0-0.2-0.1-0.4-0.3 -0.1 0-0.2 0-0.3 0.1 -0.1 0.1-0.1 0.1-0.2 0.2 -0.1 0.1-0.1 0.1-0.2 0.2s-0.2 0.1-0.2 0.1c-0.1 0-0.3 0-0.4-0.1 -0.1-0.1-0.3-0.1-0.4-0.1 -0.3 0-0.5 0-0.8 0.1 -0.3 0.1-0.5 0.2-0.8 0.3 -0.3 0.1-0.5 0.2-0.8 0.3 -0.3 0.1-0.5 0.1-0.8 0.1 -0.2 0-0.4 0.1-0.6 0.2s-0.4 0.4-0.6 0.6c-0.2 0.2-0.4 0.5-0.5 0.7 -0.1 0.3-0.2 0.5-0.2 0.6 0 0.4 0.1 0.8 0.2 1.2 0.1 0.4 0.3 0.7 0.5 0.9 0.2 0.3 0.5 0.5 0.8 0.6 0.3 0.2 0.7 0.2 1.1 0.2 0.1 0 0.3 0 0.4 0 0.1 0 0.2 0.1 0.4 0.2 0.4 0.4 0.9 0.6 1.5 0.6 0.5 0.1 1.1 0.1 1.6 0.1 0.3 0 0.6-0.1 0.9-0.2s0.6-0.3 0.9-0.3c0.3-0.1 0.6-0.1 1-0.1 0.3 0 0.6-0.1 0.9-0.2 0.2-0.1 0.4-0.2 0.5-0.3 0.1-0.1 0.3-0.2 0.6-0.2 0.2 0 0.4 0 0.6 0.1 0.2 0 0.4 0.1 0.6 0.1 0.2 0 0.4-0.1 0.6-0.2 0.2-0.1 0.3-0.2 0.5-0.4 0.1-0.2 0.2-0.4 0.3-0.6 0.1-0.2 0.1-0.4 0.1-0.6l0-0.2c0.2 0 0.4-0.1 0.5-0.3C203.5 48.6 203.5 48.4 203.5 48.2zM199.8 32.6c0-0.3 0-0.6-0.1-1 -0.1-0.4-0.2-0.7-0.4-1.1s-0.4-0.7-0.6-0.9c-0.2-0.3-0.5-0.5-0.8-0.6l-2.2-0.8c-0.1 0-0.2 0-0.3 0 -0.1 0-0.1 0.1-0.2 0.1s-0.1 0.1-0.2 0.1c-0.1 0-0.2 0-0.3 0 -0.2 0-0.3 0-0.5-0.1 -0.1-0.1-0.3-0.1-0.4-0.1 -0.1 0-0.3 0-0.3 0.1s-0.2 0.2-0.3 0.3 -0.2 0.2-0.2 0.2c-0.1 0-0.1 0.1-0.2 0.1 -0.1 0-0.1 0.1-0.2 0.1 -0.1 0-0.1 0.1-0.2 0.1 -0.1 0.1-0.2 0.3-0.4 0.6s-0.3 0.7-0.4 1.1 -0.2 0.8-0.3 1.1 -0.1 0.6-0.1 0.7c0 0.1 0 0.2 0.1 0.4 0.1 0.2 0.2 0.4 0.3 0.7s0.3 0.5 0.4 0.8 0.3 0.6 0.4 0.8 0.3 0.5 0.4 0.7c0.1 0.2 0.2 0.3 0.2 0.4 0.2 0.2 0.3 0.4 0.5 0.5 0.2 0.1 0.4 0.1 0.6 0.1 0.2 0 0.4 0 0.6 0s0.4 0 0.6 0c0.2 0 0.3 0 0.4 0.1 0.1 0 0.3 0.1 0.4 0.1 0.4 0 0.8-0.1 1.3-0.5s0.8-0.7 1.2-1.1 0.6-0.9 0.9-1.4C199.6 33.5 199.8 33 199.8 32.6zM201.6 28.3c0-0.2-0.1-0.4-0.3-0.5 -0.2-0.1-0.4-0.2-0.6-0.2 -0.1 0-0.2 0-0.3 0.1s-0.1 0.1-0.2 0.2c0.1 0 0.2 0.1 0.3 0.1 0.1 0.1 0.1 0.1 0.2 0.2 0.1 0.1 0.1 0.1 0.2 0.2 0.1 0.1 0.2 0.1 0.3 0.1s0.2 0 0.3-0.1L201.6 28.3z"/><path d="M238 39.7c0 0.2 0 0.3-0.1 0.5 -0.1 0.2-0.1 0.3-0.1 0.5 0 0.1 0 0.3 0.1 0.4 0.1 0.1 0.1 0.3 0.1 0.4 0 0.1 0 0.3-0.1 0.5 0 0.2-0.1 0.5-0.1 0.7 -0.1 0.3-0.1 0.5-0.2 0.7 -0.1 0.2-0.1 0.4-0.2 0.5h-0.5c0 0.3-0.1 0.6-0.3 0.9 -0.5 0.2-0.9 0.4-1.2 0.5 -0.3 0.1-0.7 0.1-1.1 0.1 -0.2 0-0.4 0-0.6 0 -0.2 0-0.4 0-0.6 0 -0.4 0-0.8 0-1.1 0.1 -0.3 0-0.7 0.2-1 0.4 -0.1 0.1-0.2 0.1-0.4 0.1 -0.2 0-0.5 0-0.7-0.1 -0.2-0.1-0.5-0.1-0.7-0.2 -0.2-0.1-0.5-0.1-0.7-0.2s-0.5-0.1-0.7-0.1c-0.3 0-0.7 0-1-0.1 -0.3-0.1-0.7-0.1-1-0.1 -0.3 0-0.5 0-0.7 0.1 -0.2 0-0.5 0.1-0.7 0.2 -0.2 0.1-0.5 0.1-0.7 0.2 -0.2 0-0.5 0.1-0.7 0.1 -0.2 0-0.4 0-0.7-0.1s-0.4-0.1-0.7-0.1c-0.4 0-0.8 0-1.2 0.1 -0.4 0.1-0.8 0.1-1.2 0.1 -0.5 0-1-0.1-1.3-0.4 -0.3-0.3-0.5-0.7-0.5-1.3 0-0.2 0.1-0.5 0.2-0.7 0.3-0.6 0.6-1 0.9-1.2 0.3-0.3 0.6-0.4 0.9-0.5 0.3-0.1 0.6-0.2 0.8-0.2 0.3 0 0.5-0.1 0.7-0.3 0.2-0.1 0.3-0.4 0.4-0.7 0.1-0.3 0.2-0.8 0.2-1.5 0-0.8-0.1-1.6-0.2-2.4 -0.1-0.8-0.2-1.6-0.2-2.4 0-0.4 0-0.8 0.1-1.2s0.1-0.8 0.1-1.2c0-0.7 0-1.4-0.1-2 -0.1-0.7-0.1-1.3-0.1-2 0-0.5-0.1-0.9-0.2-1.4s-0.2-0.9-0.2-1.4c0-0.3 0-0.5 0.1-0.8s0.1-0.5 0.1-0.8c0-0.4 0-0.8-0.1-1.2 0-0.4-0.1-0.8-0.1-1.2 0-0.2 0-0.4-0.1-0.6s-0.1-0.4-0.2-0.6c-0.1-0.2-0.2-0.3-0.4-0.4s-0.4-0.1-0.6-0.1c-0.2 0-0.4 0-0.7 0.1s-0.4 0.1-0.7 0.1c-0.1 0-0.3 0-0.4 0s-0.3-0.1-0.4-0.1c-0.1-0.1-0.1-0.2-0.2-0.3 0-0.1-0.1-0.2-0.1-0.4 -0.1-0.1-0.1-0.2-0.2-0.3s-0.2-0.1-0.3-0.2c0.1-0.2 0.2-0.5 0.4-0.8 0.1-0.3 0.2-0.6 0.4-0.9 0.1-0.3 0.3-0.6 0.5-0.8 0.2-0.2 0.4-0.3 0.7-0.3 0.2 0 0.5 0.1 0.7 0.2s0.4 0.2 0.7 0.2c0.3 0 0.6-0.1 0.9-0.2 0.3-0.1 0.6-0.2 0.9-0.2 0.3 0 0.5 0.1 0.7 0.3 0.2-0.1 0.4-0.1 0.6-0.1 0.1 0 0.2 0 0.4 0.1s0.2 0.1 0.4 0.1c0.4 0 0.7-0.1 1.1-0.2 0.4-0.1 0.7-0.2 1.1-0.2 0.3 0 0.6 0 0.9 0.1s0.5 0.2 0.8 0.3 0.5 0.3 0.8 0.4 0.5 0.2 0.8 0.3c0 0.1 0 0.1 0 0.2 0 0 0 0.1 0 0.2v0.1l0 0.1c0 0.3-0.1 0.5-0.1 0.8 -0.1 0.3-0.1 0.5-0.2 0.7 -0.1 0.3-0.2 0.5-0.3 0.6s-0.3 0.1-0.6 0.1c-0.1 0-0.2 0-0.3 0 -0.1 0-0.2 0-0.3 0 -0.5 0-0.9 0-1.4 0.1 -0.5 0.1-0.9 0.2-1.3 0.3 -0.1 0.3-0.2 0.5-0.2 0.9 0 0.2 0 0.5 0.1 0.7 0.1 0.2 0.1 0.5 0.1 0.7 -0.1 0-0.3-0.1-0.4-0.1 -0.1 0-0.2-0.1-0.4-0.1 -0.1 0-0.2 0.1-0.3 0.2 -0.1 0.1-0.1 0.2-0.1 0.3 0 0.1 0 0.2 0.1 0.2s0.1 0.1 0.2 0.2 0.2 0.1 0.3 0.1c0.1 0 0.2 0 0.2 0l0 0.4c0 0.5-0.1 1-0.2 1.5 -0.1 0.5-0.2 1-0.2 1.5 0 0.2 0 0.3 0 0.5 0 0.2 0 0.3 0 0.5 0 0.2 0 0.3-0.1 0.3s-0.2 0.1-0.3 0.1c-0.1 0-0.2 0-0.3 0s-0.1 0.1-0.1 0.2c0 0 0 0.1 0 0.1 -0.1 0.1-0.1 0.2-0.1 0.3 0 0.1 0 0.2 0.1 0.2s0.2 0 0.3 0.1 0.2 0 0.3 0 0.1 0.1 0.1 0.2c0 0.2 0 0.3-0.1 0.4 0 0.1-0.1 0.3-0.1 0.4 0 0.4 0.1 0.7 0.2 1.1 0.1 0.3 0.2 0.7 0.2 1.1 0 0.3 0 0.7-0.1 1 -0.1 0.3-0.1 0.6-0.1 1 0 0.2 0 0.4 0.1 0.6 0.1 0.2 0.1 0.4 0.2 0.6 0.1 0.2 0.1 0.4 0.2 0.6 0.1 0.2 0.1 0.4 0.1 0.6 0 0.3 0 0.6-0.1 0.8s-0.1 0.6-0.1 0.8c0 0.1 0 0.2 0 0.3 0.1 0.3 0.1 0.7 0.1 1.1 0 0.4 0.1 0.8 0.2 1.2 0.1 0.4 0.3 0.7 0.5 1 0.2 0.3 0.5 0.4 1 0.4 0.4 0 0.8-0.1 1.1-0.2 0.4-0.1 0.7-0.2 1.1-0.2 0.2 0 0.5 0 0.7 0.1 0.2 0.1 0.5 0.1 0.7 0.2s0.5 0.2 0.7 0.2c0.2 0.1 0.5 0.1 0.7 0.1 0.4 0 0.8 0 1.1-0.1 0.4-0.1 0.7-0.2 1.1-0.2 0.5-0.1 0.9-0.3 1.2-0.6 0.3-0.3 0.4-0.7 0.4-1.3s-0.1-1.2-0.2-1.8c-0.1-0.6-0.2-1.2-0.2-1.8 0-0.4 0.1-0.7 0.2-1.1 0.1-0.3 0.3-0.7 0.5-0.9 0.3-0.1 0.6-0.2 0.9-0.2 0.6 0 0.9 0.2 1.2 0.6 0.2 0.4 0.3 0.9 0.3 1.4 0 0.2 0 0.4-0.1 0.5 -0.1 0.1-0.1 0.2-0.1 0.3 0 0 0 0.1 0.1 0.1 0.1 0 0.1 0.1 0.2 0.2 0.1 0.1 0.1 0.2 0.2 0.2 0.1 0.1 0.1 0.2 0.1 0.3 0 0.1 0 0.2-0.1 0.2 0 0.2 0 0.3 0 0.6 0 0.2 0 0.4 0 0.7s0 0.4 0 0.6 0 0.3 0.1 0.4L238 39.7z"/><path d="M258.2 36.4c0 0.2 0 0.4-0.1 0.5 -0.1 0.2-0.1 0.3-0.2 0.4 -0.1 0.1-0.1 0.2-0.2 0.3 -0.1 0.1-0.1 0.1-0.1 0.1 0 0.1 0 0.3 0.1 0.4 0.1 0.2 0.1 0.3 0.1 0.5 0 0.1 0 0.1-0.1 0.2 -0.1 0-0.1 0-0.2 0 -0.1 0-0.2 0-0.3 0 0 0.3 0 0.5 0.1 0.8s0 0.5 0 0.8c0 0.4 0 0.7-0.1 0.8 -0.1 0.1-0.1 0.2-0.2 0.2s-0.1 0.1-0.2 0.1c-0.1 0-0.1 0.2-0.1 0.4 0 0.1-0.1 0.3-0.2 0.5 -0.2 0.2-0.3 0.4-0.6 0.6s-0.4 0.4-0.7 0.5 -0.4 0.2-0.6 0.2c0 0-0.1 0-0.1 0 0 0.1 0 0.2 0 0.3s0 0.2 0 0.3c0 0.2 0 0.3-0.1 0.4 -0.1 0.1-0.2 0.1-0.3 0.2 -0.2 0.1-0.4 0.2-0.6 0.4 -0.2 0.2-0.4 0.4-0.6 0.6 -0.2 0.2-0.4 0.4-0.6 0.5 -0.2 0.1-0.4 0.2-0.7 0.2 -0.2 0-0.4-0.1-0.6-0.2 -0.2-0.1-0.4-0.2-0.6-0.2 -0.2 0-0.4 0-0.5 0.1 -0.1 0.1-0.3 0.1-0.4 0.2 -0.1 0.1-0.2 0.1-0.4 0.2 -0.1 0.1-0.3 0.1-0.4 0.1 -0.3 0-0.7-0.1-1-0.3 -0.3-0.2-0.6-0.3-0.9-0.4 -0.2-0.1-0.4-0.1-0.6-0.2 -0.2 0-0.4-0.1-0.6-0.1s-0.4-0.1-0.5-0.2c-0.2-0.1-0.3-0.2-0.4-0.4 -0.3-0.4-0.6-0.6-0.9-0.9s-0.7-0.5-1.1-0.7c-0.4-0.2-0.7-0.4-1.1-0.6 -0.3-0.2-0.6-0.5-0.9-0.9 -0.2-0.3-0.4-0.6-0.6-0.9 -0.2-0.3-0.5-0.7-0.7-1.1 -0.2-0.4-0.4-0.7-0.5-1.1s-0.2-0.8-0.2-1.1c0-0.3 0-0.5 0.1-0.8s0.1-0.5 0.2-0.8c0.1-0.3 0.1-0.5 0.2-0.8s0.1-0.5 0.1-0.8v-0.2c0-0.1 0-0.1-0.1-0.2s-0.1-0.1-0.1-0.2c0-0.1-0.1-0.1-0.1-0.2 0 0-0.1-0.1-0.1-0.1 0 0 0 0 0 0 0-0.1 0-0.3 0.1-0.6 0.1-0.3 0.1-0.5 0.2-0.8s0.2-0.5 0.2-0.7c0.1-0.2 0.1-0.4 0.2-0.4 0.1-0.1 0.1-0.1 0.2-0.2 0.1-0.1 0.1-0.2 0.1-0.3s0-0.2 0-0.4 0-0.2 0-0.4c0-0.2 0-0.3 0.1-0.3 0 0 0.1-0.1 0.2-0.1s0.1 0 0.2 0c0.1 0 0.1-0.1 0.2-0.2 0.1-0.2 0.2-0.5 0.3-0.7s0.2-0.4 0.3-0.6c0.1-0.2 0.3-0.3 0.4-0.5 0.2-0.1 0.4-0.3 0.6-0.4 0.2-0.1 0.4-0.3 0.6-0.5 0.2-0.2 0.4-0.4 0.6-0.5 0.2-0.2 0.4-0.3 0.6-0.5 0.2-0.1 0.4-0.2 0.7-0.2 0.3 0 0.7-0.1 1-0.2 0.3-0.1 0.6-0.2 1-0.3 0.5-0.1 1-0.2 1.5-0.2 0.5-0.1 1-0.1 1.6-0.1 0.3 0 0.6 0.1 1.1 0.2 0.4 0.1 0.8 0.2 1.3 0.4 0.4 0.2 0.8 0.3 1.2 0.6 0.4 0.2 0.7 0.4 0.9 0.6v0.1c0 0.2 0 0.4-0.1 0.6s-0.1 0.4-0.1 0.6c0 0 0 0.1 0 0.1s0 0 0 0c0.2 0 0.4 0 0.6-0.1 0.2-0.1 0.4-0.1 0.6-0.1 0 0.2 0.1 0.4 0.3 0.5 0.2 0.1 0.3 0.2 0.5 0.2 0.2 0.1 0.3 0.2 0.4 0.4 0.1 0.2 0.3 0.5 0.4 0.7s0.2 0.5 0.3 0.8c0.1 0.3 0.2 0.5 0.3 0.6s0.2 0.4 0.3 0.6 0.2 0.5 0.2 0.7c0.1 0.2 0.1 0.5 0.1 0.7 0 0.2 0 0.5 0 0.7 0 0.3 0 0.5-0.1 0.7 -0.1 0.2-0.2 0.4-0.3 0.5 -0.1 0.1-0.2 0.3-0.3 0.4 -0.1 0.1-0.1 0.3-0.1 0.4 0 0.1 0 0.2 0.1 0.3 0 0.1 0.1 0.2 0.2 0.2 0 0 0.1 0 0.2 0 0.1 0 0.1-0.1 0.1-0.1v0c0-0.1 0-0.2-0.1-0.3 -0.1-0.1-0.1-0.2-0.1-0.3 0 0 0-0.1 0-0.1 0-0.1 0.1-0.1 0.1-0.1 0.1 0 0.2 0.1 0.2 0.2 0.1 0.1 0.1 0.2 0.2 0.3 0.1 0.1 0.1 0.2 0.2 0.3 0 0.1 0.1 0.1 0.1 0.1l0 0c0 0.1 0 0.1 0 0.2C258.2 36.3 258.2 36.3 258.2 36.4zM256.3 36.6c0-0.2-0.1-0.4-0.2-0.4 -0.2 0-0.3-0.1-0.5-0.1s-0.4 0-0.6-0.1c-0.2 0-0.3-0.1-0.4-0.3v-0.2c0-0.3 0-0.7-0.1-1.1 -0.1-0.4-0.2-0.8-0.3-1.2 -0.1-0.4-0.2-0.8-0.3-1.2 -0.1-0.4-0.2-0.8-0.3-1.1 -0.1-0.3-0.2-0.7-0.3-1 -0.1 0-0.2 0-0.2 0 -0.2 0-0.4 0-0.6-0.1s-0.3-0.2-0.5-0.3 -0.4-0.2-0.7-0.3c-0.3-0.1-0.7-0.1-1.1-0.1 -0.5 0-1 0-1.5-0.1 -0.5-0.1-1-0.1-1.5-0.1 -0.7 0-1.4 0.2-2 0.5s-1.2 0.8-1.6 1.4 -0.8 1.2-1.1 1.9 -0.4 1.4-0.4 2.2c0 0.3 0 0.7 0 1.1 0 0.4 0 0.8 0.1 1.2 0.1 0.4 0.1 0.8 0.2 1.1 0.1 0.3 0.3 0.6 0.5 0.8v0.6c0.1 0.1 0.1 0.1 0.2 0.1 0.1 0 0.2 0 0.2 0 0.1 0 0.2 0 0.2 0 0.1 0 0.1 0.1 0.2 0.2 0.2 0.5 0.4 0.9 0.6 1.2 0.3 0.3 0.5 0.5 0.8 0.7 0.3 0.2 0.6 0.4 0.9 0.6 0.3 0.2 0.6 0.5 0.8 0.8 0.1 0 0.2 0 0.3 0 0.1 0 0.2 0 0.3 0 0.4 0 0.8 0 1.2 0.1 0.4 0.1 0.8 0.1 1.2 0.1 0.4 0 0.8-0.1 1.1-0.3 0.3-0.2 0.6-0.5 0.9-0.9 0.2-0.2 0.3-0.4 0.4-0.6 0.1-0.2 0.3-0.3 0.4-0.5 0.1-0.1 0.3-0.3 0.4-0.4 0.2-0.1 0.3-0.3 0.6-0.4 0.1-0.1 0.2-0.1 0.3-0.2 0.1-0.1 0.2-0.2 0.3-0.3 0.1-0.1 0.2-0.2 0.3-0.3 0.1-0.1 0.1-0.2 0.1-0.3 0-0.1 0-0.2 0-0.4s0-0.2 0-0.4c0-0.1 0-0.3 0.1-0.5 0-0.2 0.1-0.4 0.2-0.6 0.1-0.2 0.2-0.3 0.3-0.4 0.1-0.1 0.3-0.2 0.4-0.2 0.1 0 0.3 0 0.4 0.1 0.1 0.1 0.3 0.2 0.4 0.2C256.3 36.7 256.3 36.6 256.3 36.6z"/><path d="M281.7 26.7c0 0.5-0.2 0.8-0.4 1.1 -0.2 0.3-0.5 0.5-0.9 0.7s-0.7 0.3-1.1 0.4c-0.4 0.1-0.8 0.1-1.1 0.1 -0.5 0-0.8 0.1-1 0.3 -0.2 0.2-0.3 0.5-0.5 1 -0.1 0.2-0.1 0.5-0.3 0.8 -0.1 0.3-0.2 0.6-0.4 1 -0.1 0.3-0.3 0.6-0.4 0.9 -0.2 0.3-0.3 0.5-0.5 0.7 0 0.2 0 0.3 0.1 0.5 0.1 0.2 0.1 0.3 0.1 0.5 0 0.2-0.1 0.4-0.2 0.6 -0.1 0.2-0.2 0.5-0.3 0.6 0 0.2-0.1 0.4-0.1 0.5 0 0.2 0 0.3 0 0.5 0 0.2-0.1 0.4-0.1 0.6 -0.1 0.4-0.3 0.7-0.5 1.1s-0.4 0.7-0.6 1c-0.1 0.6-0.2 1.2-0.4 1.8 -0.1 0.6-0.3 1.2-0.5 1.8 -0.2 0.6-0.4 1.1-0.7 1.7 -0.3 0.5-0.6 1-0.9 1.5l-0.3 0h-0.1c-0.3 0-0.7 0.1-1 0.2 -0.3 0.1-0.7 0.2-1 0.2 -0.2 0-0.3 0-0.4-0.1 -0.1-0.1-0.2-0.2-0.3-0.3 -0.1-0.1-0.1-0.2-0.2-0.4 -0.1-0.1-0.1-0.3-0.2-0.4v-0.6c-0.1-0.1-0.1-0.1-0.2-0.1 -0.1 0-0.1 0-0.2 0 -0.1 0-0.1 0-0.2 0 -0.1 0-0.1-0.1-0.1-0.2 -0.1-0.1-0.1-0.3-0.1-0.5 0-0.2 0-0.4 0-0.6 0-0.2 0-0.4 0-0.7 0-0.2-0.1-0.4-0.1-0.6 -0.1-0.2-0.2-0.4-0.2-0.5 -0.1-0.2-0.1-0.4-0.2-0.5 -0.1-0.2-0.1-0.4-0.2-0.7s-0.1-0.5-0.1-0.7c0-0.2-0.1-0.5-0.1-0.7 0-0.2-0.1-0.4-0.2-0.6 -0.1-0.2-0.2-0.3-0.3-0.5s-0.2-0.3-0.3-0.4c-0.1-0.1-0.2-0.3-0.2-0.4 -0.1-0.1-0.1-0.3-0.2-0.6 -0.3-1.3-0.6-2.6-1-3.8 -0.4-1.3-0.9-2.4-1.6-3.6 -0.1 0.1-0.3 0.1-0.5 0.2 -0.2 0-0.3 0.1-0.5 0.1 -0.4 0-0.7-0.1-1.1-0.2 -0.3-0.1-0.5-0.1-0.7-0.2 -0.2-0.1-0.4-0.1-0.5-0.3 -0.1-0.1-0.2-0.3-0.3-0.5 -0.1-0.2-0.1-0.5-0.1-0.9 0-0.4 0.1-0.7 0.2-0.9s0.4-0.4 0.6-0.5 0.5-0.2 0.8-0.3 0.6-0.1 0.8-0.1c0.4 0 0.9 0.1 1.3 0.2s0.8 0.2 1.2 0.2c0.4 0 0.8 0 1.2-0.1 0.4 0 0.8-0.1 1.2-0.1 0.1 0 0.3 0 0.5 0.1 0.3 0 0.5 0.1 0.8 0.2 0.3 0.1 0.5 0.2 0.8 0.4 0.2 0.2 0.4 0.4 0.4 0.7 0 0.3 0 0.6-0.1 0.9s-0.2 0.6-0.4 0.7c-0.1 0.1-0.2 0.2-0.4 0.2 -0.2 0-0.4 0.1-0.5 0.1 -0.2 0-0.3 0.1-0.5 0.1 -0.1 0-0.2 0.1-0.2 0.1 0 0.3-0.1 0.5-0.1 0.8 0 0.3 0 0.6 0 0.9 0 0.2 0 0.4 0.1 0.5 0 0.1 0.1 0.2 0.2 0.2 0.1 0.1 0.1 0.1 0.2 0.1 0 0 0.1 0.1 0.1 0.2 0 0.2 0.1 0.3 0.1 0.5s0.1 0.3 0.1 0.5c0 0.1 0.1 0.3 0.2 0.5s0.2 0.4 0.3 0.6c0.1 0.2 0.2 0.4 0.3 0.6s0.1 0.3 0.1 0.4c0 0-0.1 0.1-0.2 0.1 -0.1 0-0.2 0.1-0.2 0.1 0 0 0 0.1 0.1 0.1 0.1 0 0.1 0.1 0.2 0.1 0.1 0 0.2 0.1 0.2 0.1 0.1 0 0.1 0 0.1 0v0.3c0 0.5 0.1 1 0.2 1.4s0.3 0.9 0.4 1.3c0.2 0.4 0.3 0.8 0.5 1.3 0.2 0.4 0.2 0.9 0.3 1.3l0.2 0h0.1c0.3 0 0.5-0.1 0.6-0.3s0.3-0.4 0.4-0.6 0.3-0.4 0.4-0.6c0.2-0.2 0.4-0.3 0.6-0.3 0-0.1 0-0.2 0-0.3 0-0.2 0-0.4-0.1-0.5 0-0.2-0.1-0.3-0.1-0.5 0-0.2 0-0.4 0.1-0.5 0.1-0.1 0.1-0.2 0.2-0.3 0.1-0.1 0.1-0.3 0.2-0.4 0.1-0.2 0.1-0.4 0.1-0.8 0-0.1 0-0.2 0.1-0.3 0.1-0.1 0.1-0.2 0.2-0.4 0.1-0.1 0.2-0.2 0.2-0.4 0.1-0.1 0.1-0.2 0.2-0.3 0.2-0.3 0.3-0.7 0.4-1.1 0.1-0.4 0.2-0.9 0.2-1.4 0-0.5 0.1-0.9 0.1-1.3 0-0.4 0-0.8 0-1.1 0-0.3-0.1-0.5-0.3-0.7 -0.2-0.1-0.5-0.2-0.8-0.3 -0.3-0.1-0.5-0.1-0.8-0.2 -0.2-0.1-0.3-0.2-0.3-0.4 0-0.1 0-0.2 0.1-0.3 0-0.1 0.1-0.1 0.1-0.2 0.1-0.1 0.1-0.1 0.1-0.2 0-0.1 0.1-0.2 0.1-0.2 0-0.1 0-0.2-0.1-0.3 0-0.1-0.1-0.2-0.1-0.3 0-0.2 0.1-0.4 0.2-0.5s0.4-0.2 0.6-0.3c0.2-0.1 0.5-0.1 0.7-0.1s0.4 0 0.6 0c0.2 0 0.4 0 0.6 0.1s0.3 0.1 0.5 0.2 0.3 0.1 0.5 0.2 0.3 0.1 0.5 0.1c0.1 0 0.2 0 0.3-0.1 0.1-0.2 0.2-0.4 0.3-0.5 0.1-0.1 0.1-0.2 0.2-0.2s0.2-0.1 0.3-0.1 0.3 0 0.6 0l0.7 0c0.4 0 0.7 0 1.1 0 0.4 0 0.7 0.1 1.1 0.2 0.4 0.1 0.7 0.3 1 0.5C281.2 26.1 281.5 26.3 281.7 26.7zM277.4 26.1c-0.2 0-0.3-0.1-0.4-0.3s-0.2-0.3-0.4-0.3c0 0 0 0.1 0 0.2 0 0.2 0.1 0.3 0.2 0.5 0.1 0.2 0.2 0.2 0.4 0.2 0.1 0 0.2 0 0.2-0.1C277.3 26.2 277.4 26.2 277.4 26.1z"/><path d="M299.3 41.1c0 0.4-0.1 0.7-0.2 0.9 -0.1 0.3-0.2 0.5-0.4 0.7 -0.2 0.2-0.4 0.4-0.6 0.6s-0.4 0.4-0.7 0.6c-0.2 0.2-0.3 0.3-0.5 0.4 -0.1 0.1-0.3 0.2-0.4 0.2 -0.1 0.1-0.3 0.1-0.4 0.2s-0.3 0.1-0.5 0.2c-0.3 0.1-0.5 0.3-0.6 0.4 -0.2 0.1-0.3 0.2-0.5 0.3 -0.2 0.1-0.4 0.2-0.6 0.2 -0.2 0.1-0.5 0.1-0.8 0.2 -0.5 0.1-1 0.2-1.5 0.2 -0.5 0.1-1 0.1-1.5 0.1 -0.1 0-0.2 0-0.3-0.1 -0.1 0-0.2-0.1-0.4-0.1 -0.1 0-0.3-0.1-0.5-0.1 -0.2 0-0.4-0.1-0.6-0.1 -0.3 0-0.5 0-0.6-0.1 -0.1-0.1-0.3-0.2-0.4-0.3 -0.1-0.1-0.2-0.2-0.4-0.4 -0.1-0.1-0.3-0.2-0.5-0.3 -0.8-0.4-1.4-0.8-1.9-1.3s-1-1.1-1.4-1.7 -0.7-1.3-0.9-2.1c-0.3-0.8-0.5-1.5-0.6-2.4 -0.1-0.6-0.2-1.1-0.2-1.7 0-0.8 0.2-1.4 0.5-2.1 -0.1-0.4-0.2-0.8-0.2-1.1 0-0.3 0.1-0.6 0.2-1.2 0.1-0.5 0.3-1 0.5-1.5s0.5-1 0.7-1.4c0.3-0.4 0.5-0.7 0.7-0.8 0.2-0.1 0.3-0.1 0.4-0.2 0.1 0 0.1-0.2 0.1-0.4 0-0.2 0.1-0.3 0.2-0.4 0.1-0.1 0.3-0.2 0.4-0.3 0.2-0.1 0.3-0.1 0.5-0.2 0.2-0.1 0.3-0.1 0.4-0.2 0.5-0.2 0.9-0.5 1.3-0.6 0.4-0.2 0.8-0.3 1.3-0.4s0.9-0.2 1.3-0.3 0.9-0.1 1.5-0.1c0.3 0 0.5 0 0.8 0.1s0.5 0.2 0.8 0.3c0.2 0.1 0.5 0.3 0.7 0.4 0.2 0.2 0.5 0.3 0.7 0.5h0c0.2 0 0.4 0.1 0.5 0.2 0.2 0.1 0.3 0.1 0.5 0.2 0.2 0.2 0.4 0.5 0.7 0.7 0.3 0.2 0.6 0.4 0.8 0.7 0.3 0.2 0.5 0.5 0.7 0.7 0.2 0.3 0.3 0.6 0.3 0.9 0 0.1 0 0.1 0 0.2 0 0.1 0 0.1 0 0.2l0.1-0.1c0.1 0 0.1 0.1 0.1 0.2s0.1 0.2 0.1 0.3c0 0.1 0.1 0.2 0.1 0.3s0 0.2 0.1 0.3c0.1 0.2 0.2 0.3 0.4 0.4 0.2 0.1 0.3 0.3 0.4 0.5 -0.1 0.1-0.2 0.3-0.2 0.5 0 0.2 0 0.5 0.1 0.7s0.1 0.5 0.1 0.7c0 0.3 0 0.5 0 0.8 0 0.3 0 0.5 0 0.8 0 0.2-0.1 0.4-0.2 0.5s-0.3 0.2-0.5 0.3c-0.2 0.1-0.3 0.2-0.5 0.2 -0.1 0.1-0.2 0.2-0.2 0.3 0 0.1-0.1 0.2-0.2 0.2 -0.1 0-0.2 0-0.3 0 -0.6 0-1.1-0.1-1.6-0.2 -0.5-0.1-1.1-0.2-1.6-0.2 -0.6 0-1.2 0-1.8 0.1 -0.6 0.1-1.2 0.1-1.8 0.1 -0.4 0-0.9 0-1.3 0 -0.4 0-0.9 0-1.3 0 -0.1 0-0.3 0-0.6 0.1 -0.3 0-0.6 0.1-1 0.2 -0.3 0.1-0.7 0.2-1 0.3 -0.3 0.1-0.5 0.2-0.7 0.3 0 0.1 0 0.2 0 0.3 0 0.6 0.2 1.3 0.5 2 0.3 0.7 0.8 1.3 1.4 1.9 0.6 0.6 1.2 1 1.9 1.4s1.4 0.6 2.1 0.6c0.4 0 0.8 0 1.2 0.1 0.4 0 0.8 0.1 1.2 0.3 0.3-0.2 0.6-0.4 0.9-0.6 0.3-0.2 0.6-0.5 0.8-0.7 0.3-0.3 0.5-0.5 0.8-0.8 0.3-0.3 0.5-0.5 0.8-0.8 0.1-0.1 0.2-0.1 0.4-0.2 0.2 0 0.4-0.1 0.6-0.1 0.2 0 0.4-0.1 0.6-0.1 0.2 0 0.4 0 0.4 0 0.3 0 0.6 0 0.8 0.1C299.3 40.5 299.3 40.8 299.3 41.1zM296.5 32.8c0-0.2 0-0.4-0.1-0.6s-0.1-0.4-0.1-0.6c-0.1-0.4-0.1-0.8-0.1-1.1s-0.1-0.7-0.2-1.1h0c0 0.1 0 0.2-0.1 0.2 -0.1 0.1-0.1 0.1-0.2 0.1 -0.2 0-0.3 0-0.4-0.1s-0.3-0.2-0.4-0.3c-0.5-0.2-0.9-0.5-1.3-0.7 -0.4-0.2-0.8-0.4-1.1-0.5s-0.8-0.3-1.2-0.4c-0.4-0.1-0.9-0.1-1.5-0.1 0 0-0.1 0-0.1 0s-0.1 0-0.1 0.1l0.1 0.2 -0.1 0c-0.3 0.1-0.6 0.1-0.8 0.2s-0.4 0.1-0.6 0.3 -0.3 0.2-0.5 0.4c-0.2 0.2-0.4 0.4-0.6 0.6 -0.1 0.1-0.3 0.2-0.4 0.3 -0.1 0.1-0.3 0.1-0.4 0.2s-0.3 0.1-0.4 0.2c-0.1 0.1-0.2 0.1-0.3 0.3 -0.1 0.3-0.2 0.7-0.4 1 -0.2 0.3-0.3 0.7-0.3 1 0 0.2 0.1 0.4 0.2 0.5 0.2 0.2 0.4 0.3 0.6 0.4 0.2 0.1 0.5 0.2 0.8 0.3s0.6 0.1 0.9 0.2 0.6 0.1 0.8 0.1c0.2 0 0.4 0 0.6 0 0.5 0 0.9-0.1 1.4-0.2 0.5-0.1 0.9-0.2 1.4-0.2 0.5 0 1 0 1.5 0.1 0.5 0 1 0.1 1.5 0.1 0.1 0 0.3 0 0.6 0s0.5-0.1 0.7-0.1c0.2-0.1 0.5-0.1 0.6-0.3C296.4 33.1 296.5 33 296.5 32.8z"/><path d="M19.5 50.9l11.1 11.1c0.3 0.3 0.7 0.3 0.9 0L42.7 50.9c0.5-0.5-0.1-1.3-0.7-1l-10.6 6.7c-0.2 0.1-0.4 0.1-0.5 0l-10.6-6.7C19.6 49.6 19 50.4 19.5 50.9" class="a"/><path d="M36.4 43.4l9 2.5c0.3 0.1 0.5-0.2 0.4-0.4l-2.5-9c-0.1-0.4-0.7-0.3-0.7 0.1v5.8c0 0.2-0.2 0.4-0.4 0.4h-5.8C36.1 42.7 36 43.3 36.4 43.4" class="a"/><polygon points="46 16.4 33.8 19.8 42.6 19.8 42.6 28.6 " class="a"/><path d="M42.7 11.3L31.6 0.2c-0.3-0.3-0.7-0.3-0.9 0L19.5 11.3c-0.5 0.5 0.1 1.3 0.7 1l10.6-6.7c0.2-0.1 0.4-0.1 0.5 0l10.6 6.7C42.6 12.7 43.2 11.8 42.7 11.3" class="a"/><path d="M25.9 19l-9-2.5c-0.3-0.1-0.5 0.2-0.4 0.4l2.5 9c0.1 0.4 0.7 0.3 0.7-0.1v-5.8c0-0.2 0.2-0.4 0.4-0.4h5.8C26.2 19.8 26.3 19.2 25.9 19" class="a"/><path d="M34.9 27.3l-3.8 2.7 -3.8-2.7c-0.4-0.4-1.1-0.4-1.5 0l-3 3c-0.4 0.4-0.4 1.1 0 1.5l3.8 3.8 4.5 4.5 4.5-4.5 3.8-3.8c0.4-0.4 0.4-1.1 0-1.5l-3-3C36 26.9 35.3 26.9 34.9 27.3" fill="#B13625"/><path d="M11.3 19.5L0.2 30.6c-0.3 0.3-0.3 0.7 0 0.9l11.1 11.1c0.5 0.5 1.3-0.1 1-0.7L5.3 31.4c-0.1-0.2 0.2-0.4 0.3-0.5l6.7-10.6C12.6 19.6 11.8 19 11.3 19.5" class="a"/><path d="M16.9 45.9l9-2.5c0.4-0.1 0.3-0.7-0.1-0.7h-5.8c-0.2 0-0.4-0.2-0.4-0.4v-5.8c0-0.4-0.6-0.5-0.7-0.1l-2.5 9C16.4 45.7 16.7 46 16.9 45.9" class="a"/></svg>
